<?xml version="1.0" encoding="UTF-8"?>
<svg version="1.1" xmlns="http://www.w3.org/2000/svg" width="304" height="238">
<path d="M0 0 C100.32 0 200.64 0 304 0 C304 78.54 304 157.08 304 238 C203.68 238 103.36 238 0 238 C0 159.46 0 80.92 0 0 Z " fill="#FDFEFE" transform="translate(0,0)"/>
<path d="M0 0 C0 0.66 0 1.32 0 2 C1.65 2.66 3.3 3.32 5 4 C5 4.33 5 4.66 5 5 C3.53240234 5.05607422 3.53240234 5.05607422 2.03515625 5.11328125 C-6.53000913 5.54280282 -13.7986201 6.46274151 -21.5625 10.25 C-23.31314926 12.07384556 -23.31314926 12.07384556 -23.5 15.4375 C-22.92255297 19.5518101 -21.92199248 20.26652316 -19 23 C-19.18632447 26.07435378 -20.24914064 27.37371096 -22 30 C-24.2421875 30.265625 -24.2421875 30.265625 -26.875 30.25 C-30.65932774 30.41638602 -30.65932774 30.41638602 -33.546875 32.61328125 C-34.78577539 34.75776063 -34.78577539 34.75776063 -36 38 C-36.70125 37.89558594 -37.4025 37.79117188 -38.125 37.68359375 C-44.25784615 37.15234748 -44.25784615 37.15234748 -49.51171875 40.00390625 C-51.48046234 42.26248283 -53.29482004 44.53750516 -55 47 C-54.38125 48.093125 -53.7625 49.18625 -53.125 50.3125 C-52.77695313 50.92738281 -52.42890625 51.54226562 -52.0703125 52.17578125 C-51.10571419 53.81982289 -50.05732941 55.41400588 -49 57 C-48.6875 59.5625 -48.6875 59.5625 -49 62 C-53.05358424 64.70238949 -55.18310104 64.22937614 -60 64 C-60.66 63.67 -61.32 63.34 -62 63 C-63.49756871 62.90500497 -64.99942932 62.87012802 -66.5 62.875 C-67.69109375 62.87113281 -67.69109375 62.87113281 -68.90625 62.8671875 C-71.05918534 62.86722004 -71.05918534 62.86722004 -73 64 C-73.61744039 66.74475175 -73.61744039 66.74475175 -74 69.9375 C-74.77991747 75.77991747 -74.77991747 75.77991747 -77 78 C-81.86852437 78.95956393 -86.03482824 78.37097733 -90.3125 75.875 C-93.87885251 73.39065464 -95.89386005 70.77350075 -98 67 C-98.33 67.66 -98.66 68.32 -99 69 C-99.66 69 -100.32 69 -101 69 C-101.66 76.92 -102.32 84.84 -103 93 C-97.6298791 90.48184728 -97.6298791 90.48184728 -94 86.8125 C-91.9134189 84.66121871 -91.17956897 84.04788506 -88.1875 83.25 C-84.18672405 84.19135905 -81.62041006 86.10887681 -78.29296875 88.4609375 C-73.56771153 91.63257523 -69.45527419 93.43857561 -63.75 92.5 C-60 92 -60 92 -57.5625 92.9375 C-55.16179113 96.10643571 -54.50473306 99.12984261 -55 103 C-56.39121788 106.16350847 -58.08903276 108.13455975 -61 110 C-63.75338618 110.5218282 -66.36849098 110.6265319 -69.16796875 110.703125 C-73.68492575 111.1766267 -77.47692339 113.16515231 -81 116 C-81.495 117.485 -81.495 117.485 -82 119 C-83.94345328 119.72467749 -85.8898766 120.44318815 -87.85546875 121.10546875 C-91.16412014 122.48558017 -93.3813557 124.57775403 -96 127 C-93.53746295 135.50694617 -89.33462057 142.98878439 -84 150 C-77.32812667 148.71888528 -70.72674902 147.25865965 -64.13671875 145.609375 C-63.22404739 145.38227844 -62.31137604 145.15518188 -61.37104797 144.92120361 C-59.44718141 144.44166369 -57.52361619 143.96091335 -55.6003418 143.47900391 C-52.73396687 142.76162938 -49.86609441 142.05049729 -46.99804688 141.33984375 C-37.48937794 138.97160781 -28.01144525 136.50914455 -18.578125 133.85546875 C-17.73074265 133.62039612 -16.88336029 133.38532349 -16.01029968 133.14312744 C-6.67387936 130.47472766 4.02728402 127.01281929 10.05078125 118.9453125 C11.17279986 116.64586694 11.54747529 114.58800656 11.9375 112.0625 C12.87099485 106.15634987 15.38222212 102.73939622 20 99 C30.88120313 92.19924804 45.36906036 89.53520931 58 89 C54.57179679 93.71377942 50.43087181 97.27365378 46 101 C45.38898438 101.51433594 44.77796875 102.02867188 44.1484375 102.55859375 C42.77032686 103.7113735 41.38591761 104.85661797 40 106 C40.33 106.99 40.66 107.98 41 109 C47.5723239 108.42280528 53.38169779 106.77438861 59.625 104.6875 C66.01143465 102.58990582 72.37381044 100.58472842 78.875 98.875 C83.61662032 97.56071575 87.35827719 95.90244651 91.39453125 93.10546875 C95.00716213 90.61793946 97.63716071 90 102 90 C101.7270759 93.17919699 100.8716962 94.12625748 98.55078125 96.41015625 C97.47971061 97.30437608 96.39961013 98.18784979 95.3125 99.0625 C94.44008667 99.78203857 94.44008667 99.78203857 93.55004883 100.51611328 C88.90836883 104.32317335 84.19176273 108.03816323 79.45336914 111.72387695 C75.53241533 114.77615208 71.66983314 117.89132184 67.8293457 121.04418945 C61.39849787 126.31979516 54.97379039 131.4496529 48 136 C47.4337793 136.37721191 46.86755859 136.75442383 46.28417969 137.14306641 C25.52938977 150.91689514 3.26145386 157.83704738 -20.9375 163.3125 C-22.53331909 163.67613647 -22.53331909 163.67613647 -24.16137695 164.04711914 C-38.86555129 167.24456269 -53.16054409 168.35222458 -68.16259766 168.31567383 C-70.8653191 168.31251133 -73.56694367 168.33609091 -76.26953125 168.36132812 C-91.16098887 168.41621876 -105.59799139 166.83280016 -119.875 162.375 C-120.69468262 162.12266602 -121.51436523 161.87033203 -122.35888672 161.61035156 C-142.46561003 155.16731315 -162.40028306 145.08964464 -179 132 C-178.34 131.67 -177.68 131.34 -177 131 C-175.1784668 131.69335938 -175.1784668 131.69335938 -172.94921875 132.84375 C-172.11479248 133.26285645 -171.28036621 133.68196289 -170.4206543 134.11376953 C-169.51871338 134.57122559 -168.61677246 135.02868164 -167.6875 135.5 C-157.09656134 140.7330827 -146.28917491 144.57400939 -135 148 C-135.58007812 146.81470703 -135.58007812 146.81470703 -136.171875 145.60546875 C-147.83556067 120.34377331 -148.74085687 90.81043955 -139.1875 64.6875 C-136.6596721 58.15215927 -133.64535322 51.9922297 -130 46 C-129.56300781 45.26910156 -129.12601563 44.53820312 -128.67578125 43.78515625 C-118.1756267 27.14737555 -104.37546859 15.01888112 -87 6 C-85.97390625 5.45472656 -84.9478125 4.90945312 -83.890625 4.34765625 C-56.45913837 -9.33327553 -28.78188579 -7.3023756 0 0 Z " fill="#399ADB" transform="translate(188,25)"/>
<path d="M0 0 C-2.43421316 2.29517913 -4.87292684 4.58551995 -7.3125 6.875 C-8.00279297 7.52597656 -8.69308594 8.17695312 -9.40429688 8.84765625 C-10.40493164 9.78544922 -10.40493164 9.78544922 -11.42578125 10.7421875 C-12.34484253 11.60626221 -12.34484253 11.60626221 -13.2824707 12.48779297 C-15 14 -15 14 -18 16 C-17.67 16.99 -17.34 17.98 -17 19 C-10.4276761 18.42280528 -4.61830221 16.77438861 1.625 14.6875 C8.01143465 12.58990582 14.37381044 10.58472842 20.875 8.875 C25.61662032 7.56071575 29.35827719 5.90244651 33.39453125 3.10546875 C37.00716213 0.61793946 39.63716071 0 44 0 C43.7270759 3.17919699 42.8716962 4.12625748 40.55078125 6.41015625 C39.47971061 7.30437608 38.39961013 8.18784979 37.3125 9.0625 C36.44008667 9.78203857 36.44008667 9.78203857 35.55004883 10.51611328 C30.90836883 14.32317335 26.19176273 18.03816323 21.45336914 21.72387695 C17.53241533 24.77615208 13.66983314 27.89132184 9.8293457 31.04418945 C3.39849787 36.31979516 -3.02620961 41.4496529 -10 46 C-10.5662207 46.37721191 -11.13244141 46.75442383 -11.71582031 47.14306641 C-32.47061023 60.91689514 -54.73854614 67.83704738 -78.9375 73.3125 C-80.00137939 73.55492432 -81.06525879 73.79734863 -82.16137695 74.04711914 C-96.86555129 77.24456269 -111.16054409 78.35222458 -126.16259766 78.31567383 C-128.8653191 78.31251133 -131.56694367 78.33609091 -134.26953125 78.36132812 C-149.16098887 78.41621876 -163.59799139 76.83280016 -177.875 72.375 C-178.69468262 72.12266602 -179.51436523 71.87033203 -180.35888672 71.61035156 C-200.46561003 65.16731315 -220.40028306 55.08964464 -237 42 C-236.01 41.505 -236.01 41.505 -235 41 C-233.19433594 41.69335938 -233.19433594 41.69335938 -230.984375 42.84375 C-230.15663574 43.26261475 -229.32889648 43.68147949 -228.47607422 44.11303711 C-227.57646973 44.57073486 -226.67686523 45.02843262 -225.75 45.5 C-209.05915142 53.68712171 -191.58168715 59.43909851 -173 61 C-171.99727051 61.09522949 -170.99454102 61.19045898 -169.96142578 61.28857422 C-146.00830472 63.26648611 -124.4528762 57.13150567 -101.60351562 50.72174072 C-98.34826748 49.81932818 -95.08337074 48.95726107 -91.81546021 48.10203552 C-88.91725541 47.34265287 -86.02322369 46.5683047 -83.13031006 45.78903198 C-81.21214602 45.27342505 -79.29190728 44.76555511 -77.37158203 44.25805664 C-67.40147189 41.47182691 -54.40599035 37.59312071 -47.94921875 28.9453125 C-46.82720014 26.64586694 -46.45252471 24.58800656 -46.0625 22.0625 C-45.12900515 16.15634987 -42.61777788 12.73939622 -38 9 C-29.16353207 3.47720755 -10.25493673 -3.41831224 0 0 Z " fill="#CB275E" transform="translate(246,115)"/>
<path d="M0 0 C6.86925932 0.829211 13.46883698 2.50854243 20.17382812 4.18359375 C21.06392578 4.40144531 21.95402344 4.61929688 22.87109375 4.84375 C23.66443115 5.04162109 24.45776855 5.23949219 25.27514648 5.44335938 C31.49163763 6.71328141 37.66863835 7.16092361 44 7.31640625 C44.7211499 7.33718735 45.4422998 7.35796844 46.18530273 7.37937927 C48.45678507 7.44401934 50.72836862 7.50335551 53 7.5625 C54.55339529 7.6057669 56.10678087 7.64938358 57.66015625 7.69335938 C61.44000424 7.79961096 65.21995252 7.9011108 69 8 C67.68 8.66 66.36 9.32 65 10 C85.77009165 24.59519954 109.55480617 28.96403989 134.54833984 25.22607422 C149.03965816 22.61930467 161.82911255 16.11392497 174 8 C165.39590882 25.87003553 146.02713 37.08561338 127.81640625 43.53515625 C100.07315261 52.74736404 69.24524869 51.85873971 42.7734375 39.00390625 C26.85608384 30.78942954 7.43191267 16.90160784 0 0 Z " fill="#64BBF6" transform="translate(60,185)"/>
<path d="M0 0 C-0.2729241 3.17919699 -1.1283038 4.12625748 -3.44921875 6.41015625 C-4.52028939 7.30437608 -5.60038987 8.18784979 -6.6875 9.0625 C-7.55991333 9.78203857 -7.55991333 9.78203857 -8.44995117 10.51611328 C-13.09163117 14.32317335 -17.80823727 18.03816323 -22.54663086 21.72387695 C-26.46758467 24.77615208 -30.33016686 27.89132184 -34.1706543 31.04418945 C-40.60150213 36.31979516 -47.02620961 41.4496529 -54 46 C-54.5662207 46.37721191 -55.13244141 46.75442383 -55.71582031 47.14306641 C-76.47061023 60.91689514 -98.73854614 67.83704738 -122.9375 73.3125 C-124.00137939 73.55492432 -125.06525879 73.79734863 -126.16137695 74.04711914 C-140.86555129 77.24456269 -155.16054409 78.35222458 -170.16259766 78.31567383 C-172.8653191 78.31251133 -175.56694367 78.33609091 -178.26953125 78.36132812 C-193.16098887 78.41621876 -207.59799139 76.83280016 -221.875 72.375 C-222.69468262 72.12266602 -223.51436523 71.87033203 -224.35888672 71.61035156 C-244.46561003 65.16731315 -264.40028306 55.08964464 -281 42 C-280.01 41.505 -280.01 41.505 -279 41 C-277.19433594 41.69335938 -277.19433594 41.69335938 -274.984375 42.84375 C-274.15663574 43.26261475 -273.32889648 43.68147949 -272.47607422 44.11303711 C-271.57646973 44.57073486 -270.67686523 45.02843262 -269.75 45.5 C-241.85691752 59.18199226 -210.92290572 64.87844766 -180 60 C-181.76472653 62.25492835 -182.78985452 62.95220228 -185.62011719 63.59594727 C-189.41813195 64.04998616 -193.13729795 64.08910956 -196.953125 64.02734375 C-198.47395618 64.01471182 -199.99478962 64.00234983 -201.515625 63.99023438 C-203.8946042 63.96530939 -206.27346399 63.93717332 -208.65234375 63.90405273 C-210.9609455 63.8739632 -213.26939058 63.85612486 -215.578125 63.83984375 C-216.2926886 63.82638412 -217.0072522 63.8129245 -217.74346924 63.79905701 C-219.49690305 63.79009674 -221.25022677 63.88640394 -223 64 C-223.66 64.66 -224.32 65.32 -225 66 C-223.69777984 68.60444032 -222.06491576 69.18898054 -219.44140625 70.2734375 C-215.08995959 71.56842802 -210.60581296 72.02031902 -206.109375 72.5703125 C-203 73 -203 73 -200 74 C-197.42327966 74.12061244 -194.87442161 74.18808081 -192.296875 74.203125 C-191.54085999 74.20882507 -190.78484497 74.21452515 -190.00592041 74.22039795 C-188.40549108 74.22983965 -186.80504238 74.23637864 -185.20458984 74.24023438 C-182.77276 74.24990945 -180.34178672 74.28092679 -177.91015625 74.3125 C-176.35156749 74.3190337 -174.79297272 74.32428273 -173.234375 74.328125 C-172.51433289 74.3404718 -171.79429077 74.3528186 -171.0524292 74.36553955 C-166.03205338 74.34372011 -162.5034374 73.12614821 -158 71 C-155.5246582 70.32397461 -155.5246582 70.32397461 -153.30078125 69.90234375 C-152.48416016 69.74056641 -151.66753906 69.57878906 -150.82617188 69.41210938 C-149.99666016 69.25548828 -149.16714844 69.09886719 -148.3125 68.9375 C-146.64091251 68.61855342 -144.97028802 68.29450845 -143.30078125 67.96484375 C-142.57028564 67.8268335 -141.83979004 67.68882324 -141.0871582 67.54663086 C-138.95319891 67.06684786 -138.95319891 67.06684786 -136.96948242 65.96704102 C-134.46224112 64.73595352 -132.05439598 64.61790985 -129.29296875 64.44140625 C-126.62906626 63.92859367 -124.37285269 62.84766111 -121.90698242 61.74633789 C-118.71575846 60.49738492 -115.43243884 59.98879033 -112.0625 59.4375 C-106.64251427 58.49025134 -101.31253608 57.43881186 -96 56 C-96 55.34 -96 54.68 -96 54 C-94.73308493 53.32591692 -93.46129251 52.66099503 -92.1875 52 C-91.47980469 51.62875 -90.77210938 51.2575 -90.04296875 50.875 C-88 50 -88 50 -85 50 C-84.67 49.01 -84.34 48.02 -84 47 C-81.70936216 45.55137528 -79.45344164 44.26187024 -77.0625 43 C-70.81056938 39.59794215 -64.68409771 36.0475515 -58.625 32.3125 C-57.86131104 31.84312012 -57.09762207 31.37374023 -56.31079102 30.89013672 C-54.20606782 29.59524 -52.10270586 28.29816929 -50 27 C-45.12097326 23.99021078 -40.2740867 21.08831382 -35.125 18.5625 C-24.50254575 13.48250882 -24.50254575 13.48250882 -15.3125 6.3125 C-11.06974711 2.06974711 -5.95740033 0 0 0 Z " fill="#AB1A65" transform="translate(290,115)"/>
<path d="M0 0 C0.66 0.99 1.32 1.98 2 3 C0.8125 5.875 0.8125 5.875 -1 9 C-1.7425 9.28875 -2.485 9.5775 -3.25 9.875 C-7.64609723 11.67340341 -10.02675851 15.40514883 -13 19 C-13.66 19.66 -14.32 20.32 -15 21 C-15.31195313 21.78375 -15.62390625 22.5675 -15.9453125 23.375 C-16.9890648 25.9727835 -18.19829378 27.77597517 -19.875 30 C-23.68747286 35.56063115 -25.27921688 41.54288663 -27 48 C-27.37250823 49.31320938 -27.74692817 50.62588156 -28.125 51.9375 C-28.41375 52.948125 -28.7025 53.95875 -29 55 C-29.350625 55.94875 -29.70125 56.8975 -30.0625 57.875 C-38.02070417 84.40234724 -29.46760115 113.04996573 -18 137 C-20.14576637 137.02685938 -22.29162645 137.04633088 -24.4375 137.0625 C-25.63246094 137.07410156 -26.82742187 137.08570313 -28.05859375 137.09765625 C-31 137 -31 137 -32 136 C-33.258125 135.979375 -34.51625 135.95875 -35.8125 135.9375 C-38.00390625 135.66796875 -38.00390625 135.66796875 -40 135 C-44.29091478 128.80201198 -45.96239887 121.199524 -48 114 C-48.21785156 113.25363281 -48.43570313 112.50726563 -48.66015625 111.73828125 C-51.17592467 102.55106768 -51.16006701 93.0814033 -51.125 83.625 C-51.12886719 82.55894531 -51.13273437 81.49289063 -51.13671875 80.39453125 C-51.13478516 78.85732422 -51.13478516 78.85732422 -51.1328125 77.2890625 C-51.13168457 76.36818848 -51.13055664 75.44731445 -51.12939453 74.49853516 C-51.00969987 72.18729905 -50.6518793 70.21328234 -50 68 C-49.34 68 -48.68 68 -48 68 C-47.87625 66.4221875 -47.87625 66.4221875 -47.75 64.8125 C-46.22456798 53.06255064 -41.17370517 42.50727202 -36 32 C-35.34 32 -34.68 32 -34 32 C-33.814375 31.175 -33.62875 30.35 -33.4375 29.5 C-31.50734921 24.80050244 -28.48236195 21.6374783 -25 18 C-24.49597656 17.44699219 -23.99195312 16.89398438 -23.47265625 16.32421875 C-22 15 -22 15 -18.875 14 C-17.92625 13.67 -16.9775 13.34 -16 13 C-15.67 12.01 -15.34 11.02 -15 10 C-14.236875 9.71125 -13.47375 9.4225 -12.6875 9.125 C-9.82344249 8.17973315 -9.82344249 8.17973315 -8.0625 5.5625 C-5.67990612 2.60230761 -3.45392541 1.49146779 0 0 Z " fill="#3AAAF5" transform="translate(96,38)"/>
<path d="M0 0 C11.88 0.33 23.76 0.66 36 1 C34.02 1.99 34.02 1.99 32 3 C52.77009165 17.59519954 76.55480617 21.96403989 101.54833984 18.22607422 C116.03965816 15.61930467 128.82911255 9.11392497 141 1 C137.5215529 8.22446706 134.67981541 12.35349016 127.3359375 15.83984375 C124.96943562 16.98012466 124.96943562 16.98012466 122.6640625 18.37890625 C100.10679663 31.67034137 72.70319699 34.57336048 47.47265625 28.26171875 C31.86721388 24.00507527 18.56055463 17.30016852 6 7 C5.01 6.2575 4.02 5.515 3 4.75 C1 3 1 3 0 0 Z " fill="#3891CF" transform="translate(93,192)"/>
<path d="M0 0 C4.00077595 0.94135905 6.56708994 2.85887681 9.89453125 5.2109375 C14.61978847 8.38257523 18.73222581 10.18857561 24.4375 9.25 C28.1875 8.75 28.1875 8.75 30.625 9.6875 C33.02570887 12.85643571 33.68276694 15.87984261 33.1875 19.75 C31.79628212 22.91350847 30.09846724 24.88455975 27.1875 26.75 C24.43411382 27.2718282 21.81900902 27.3765319 19.01953125 27.453125 C14.50257425 27.9266267 10.71057661 29.91515231 7.1875 32.75 C6.8575 33.74 6.5275 34.73 6.1875 35.75 C4.26762214 36.47822953 2.34394487 37.19877222 0.3984375 37.85546875 C-3.11264665 39.27603106 -5.82218489 41.44496544 -8.8125 43.75 C-14.20939066 30.64326554 -15.38338979 17.76266804 -15.8125 3.75 C-15.4825 3.75 -15.1525 3.75 -14.8125 3.75 C-14.8125 5.73 -14.8125 7.71 -14.8125 9.75 C-11.09088145 8.15502062 -8.48519059 6.55336804 -5.8125 3.5625 C-3.7259189 1.41121871 -2.99206897 0.79788506 0 0 Z " fill="#52B5F4" transform="translate(99.8125,108.25)"/>
<path d="M0 0 C4.40744846 1.1915903 6.35265416 3.35265416 9.5625 6.5625 C11.55080728 7.05388861 11.55080728 7.05388861 13.6875 7.1875 C17.5625 7.5625 17.5625 7.5625 19.625 8.8125 C20.5625 10.5625 20.5625 10.5625 20.625 12.9375 C19.07936648 16.756124 16.90613466 18.17418953 13.5625 20.5625 C12.9025 20.5625 12.2425 20.5625 11.5625 20.5625 C11.68625 22.0475 11.68625 22.0475 11.8125 23.5625 C11.8232126 28.83309911 9.46235723 33.34266682 6.078125 37.296875 C4.5625 38.5625 4.5625 38.5625 2.125 38.5625 C-0.4375 37.5625 -0.4375 37.5625 -2.25 35.25 C-4.77939071 32.14246284 -7.0339377 31.05275875 -10.6328125 29.45703125 C-12.4375 28.5625 -12.4375 28.5625 -14.4375 26.5625 C-14.19923586 24.10043723 -13.86434064 22.92610499 -11.9609375 21.3046875 C-9.84046659 18.87973872 -9.70730491 16.78704845 -9.25 13.625 C-9.09144531 12.58472656 -8.93289062 11.54445313 -8.76953125 10.47265625 C-8.36192765 7.3883033 -8.36192765 7.3883033 -8.4375 3.5625 C-6.09450863 -0.30852922 -4.24239992 -0.75656132 0 0 Z " fill="#74CAE8" transform="translate(193.4375,75.4375)"/>
<path d="M0 0 C4.02180425 1.22267815 7.69905184 2.7779979 11.45263672 4.6652832 C39.01723419 18.42786007 70.43047285 23.82269809 101 19 C99.23527347 21.25492835 98.21014548 21.95220228 95.37988281 22.59594727 C91.58186805 23.04998616 87.86270205 23.08910956 84.046875 23.02734375 C82.52604382 23.01471182 81.00521038 23.00234983 79.484375 22.99023438 C77.1053958 22.96530939 74.72653601 22.93717332 72.34765625 22.90405273 C70.0390545 22.8739632 67.73060942 22.85612486 65.421875 22.83984375 C64.3500296 22.81965431 64.3500296 22.81965431 63.25653076 22.79905701 C61.50309695 22.79009674 59.74977323 22.88640394 58 23 C57.34 23.66 56.68 24.32 56 25 C57.30631977 27.61263955 58.94770515 28.19645531 61.58203125 29.27734375 C65.83071484 30.54714418 70.2038689 30.97790364 74.59375 31.53125 C77.27660144 31.90044974 79.76418241 32.37967078 82.375 33.0625 C105.92487661 38.59084442 132.82425839 34.91145916 156.0546875 29.9140625 C156.90828857 29.73141846 157.76188965 29.54877441 158.64135742 29.3605957 C160.30168462 29.00318516 161.96078488 28.64001173 163.6184082 28.27026367 C167.48124689 27.42912532 171.01822647 26.76859432 175 27 C170.25309799 30.16460134 164.83811142 30.79136599 159.3125 32 C158.17232422 32.26039063 157.03214844 32.52078125 155.85742188 32.7890625 C140.7816378 36.12612817 126.22832273 37.35317201 110.83740234 37.31567383 C108.1346809 37.31251133 105.43305633 37.33609091 102.73046875 37.36132812 C87.83901113 37.41621876 73.40200861 35.83280016 59.125 31.375 C58.30531738 31.12266602 57.48563477 30.87033203 56.64111328 30.61035156 C36.91858237 24.29042453 15.92676363 14.43601425 0 1 C0 0.67 0 0.34 0 0 Z " fill="#BC2966" transform="translate(9,156)"/>
<path d="M0 0 C0 0.66 0 1.32 0 2 C1.65 2.66 3.3 3.32 5 4 C5 4.33 5 4.66 5 5 C4.02160156 5.03738281 3.04320312 5.07476562 2.03515625 5.11328125 C-6.53000913 5.54280282 -13.7986201 6.46274151 -21.5625 10.25 C-23.31314926 12.07384556 -23.31314926 12.07384556 -23.5 15.4375 C-22.92255297 19.5518101 -21.92199248 20.26652316 -19 23 C-19.18632447 26.07435378 -20.24914064 27.37371096 -22 30 C-23.9453125 30.29296875 -23.9453125 30.29296875 -26.125 30.1875 C-27.40375 30.125625 -28.6825 30.06375 -30 30 C-30 29.67 -30 29.34 -30 29 C-28.02 29 -26.04 29 -24 29 C-22.83642813 24.60193389 -22.83642813 24.60193389 -24.4375 20.5 C-24.953125 19.675 -25.46875 18.85 -26 18 C-26.40603518 14.02085525 -26.10306598 11.41748222 -24 8 C-24.66 8 -25.32 8 -26 8 C-26 7.34 -26 6.68 -26 6 C-27.0828125 6.0309375 -27.0828125 6.0309375 -28.1875 6.0625 C-30.91925138 6.00179441 -33.34256091 5.60741465 -36 5 C-36.33 5.66 -36.66 6.32 -37 7 C-37.99 6.34 -38.98 5.68 -40 5 C-35.38 3.68 -30.76 2.36 -26 1 C-26.99 0.505 -26.99 0.505 -28 0 C-28 -0.99 -28 -1.98 -28 -3 C-49.02514686 -3.27600776 -68.60568983 -1.90680264 -87 9 C-88.23826813 9.66763765 -89.47932468 10.33012124 -90.72265625 10.98828125 C-92.002713 11.67948598 -93.28266204 12.37089023 -94.5625 13.0625 C-95.47515625 13.53671387 -95.47515625 13.53671387 -96.40625 14.02050781 C-100.28132396 16.16234291 -101.70500458 17.79657224 -103 22 C-104.875 23.0625 -104.875 23.0625 -107 24 C-107.639375 24.639375 -108.27875 25.27875 -108.9375 25.9375 C-111 28 -111 28 -113.4375 29.375 C-116.75001279 31.47561787 -118.59706294 33.91050949 -121 37 C-121.66 36.67 -122.32 36.34 -123 36 C-113.10292265 22.77832303 -101.62679991 13.52046111 -87 6 C-85.97519531 5.45601562 -84.95039062 4.91203125 -83.89453125 4.3515625 C-56.47198014 -9.34233501 -28.77579672 -7.30083071 0 0 Z " fill="#4194CA" transform="translate(188,25)"/>
<path d="M0 0 C0.33 0.66 0.66 1.32 1 2 C0.06553465 4.03144641 -0.93224776 6.03533587 -2 8 C-2.66 8 -3.32 8 -4 8 C-4.391875 9.2375 -4.78375 10.475 -5.1875 11.75 C-6.4175106 15.47484341 -7.86101658 19.03412109 -9.4375 22.625 C-12.39446835 29.56043485 -14.21387632 36.69585177 -16 44 C-16.66 44 -17.32 44 -18 44 C-18.05901588 48.39577504 -18.09393248 52.79144562 -18.125 57.1875 C-18.14175781 58.41404297 -18.15851562 59.64058594 -18.17578125 60.90429688 C-18.26573755 77.95101642 -14.90891904 94.38143303 -8 110 C-6.700625 110.144375 -5.40125 110.28875 -4.0625 110.4375 C-0.125 110.875 -0.125 110.875 1 112 C3.28988781 112.15888092 5.58443441 112.25138073 7.87890625 112.31640625 C8.90889992 112.3475779 8.90889992 112.3475779 9.95970154 112.37937927 C12.16052935 112.44494143 14.36147975 112.50379015 16.5625 112.5625 C18.05144514 112.60567892 19.54037773 112.649293 21.02929688 112.69335938 C24.68606553 112.8006293 28.34297318 112.90187772 32 113 C32 111.02 32 109.04 32 107 C31.01 106.67 30.02 106.34 29 106 C29 105.34 29 104.68 29 104 C28.34 104 27.68 104 27 104 C25.80911014 98.61972975 24.7080481 93.54708616 25 88 C28.00063854 89.50031927 28.36902848 91.76737263 29.6875 94.8125 C32.68869562 101.51146505 36.17870425 107.72538716 40 114 C37.44488708 116.55511292 30.64644585 115.23820836 27.18603516 115.25012207 C-6.70791768 115.24811461 -6.70791768 115.24811461 -12.33984375 109.69140625 C-14.12163924 106.48068919 -15.0830615 103.55602618 -16 100 C-16.39233863 98.6208401 -16.78560168 97.24194292 -17.1796875 95.86328125 C-24.71081145 68.31231417 -22.43684281 39.38442424 -9 14.0625 C-6.22841014 9.22321612 -3.18592013 4.57552358 0 0 Z " fill="#6894CA" transform="translate(64,62)"/>
<path d="M0 0 C0.99 0.33 1.98 0.66 3 1 C1.68 3.31 0.36 5.62 -1 8 C-1.70125 7.89558594 -2.4025 7.79117188 -3.125 7.68359375 C-9.25784615 7.15234748 -9.25784615 7.15234748 -14.51171875 10.00390625 C-16.48046234 12.26248283 -18.29482004 14.53750516 -20 17 C-19.071875 18.6396875 -19.071875 18.6396875 -18.125 20.3125 C-17.77695313 20.92738281 -17.42890625 21.54226562 -17.0703125 22.17578125 C-16.10571419 23.81982289 -15.05732941 25.41400588 -14 27 C-13.6875 29.5625 -13.6875 29.5625 -14 32 C-18.05358424 34.70238949 -20.18310104 34.22937614 -25 34 C-25.99 33.505 -25.99 33.505 -27 33 C-28.49756871 32.90500497 -29.99942932 32.87012802 -31.5 32.875 C-32.2940625 32.87242188 -33.088125 32.86984375 -33.90625 32.8671875 C-36.05918534 32.86722004 -36.05918534 32.86722004 -38 34 C-38.61744039 36.74475175 -38.61744039 36.74475175 -39 39.9375 C-39.77991747 45.77991747 -39.77991747 45.77991747 -42 48 C-46.86852437 48.95956393 -51.03482824 48.37097733 -55.3125 45.875 C-58.87885251 43.39065464 -60.89386005 40.77350075 -63 37 C-63.66 37.66 -64.32 38.32 -65 39 C-64.49202991 34.6822542 -63.80317221 30.96697886 -62 27 C-60 30 -60 30 -60 33 C-59.01 33.33 -58.02 33.66 -57 34 C-57.33 36.31 -57.66 38.62 -58 41 C-57.34 41 -56.68 41 -56 41 C-56 41.66 -56 42.32 -56 43 C-52.15959841 44.03035165 -50.10958305 44.03287491 -46.25 42.875 C-42.52485196 40.72587613 -42.16932021 39.99044713 -41 36 C-40.76028911 33.10348171 -40.76028911 33.10348171 -40.875 30.1875 C-40.89304687 29.21167969 -40.91109375 28.23585938 -40.9296875 27.23046875 C-40.95289062 26.49441406 -40.97609375 25.75835937 -41 25 C-39.35 25 -37.7 25 -36 25 C-36 25.66 -36 26.32 -36 27 C-35.34 27.33 -34.68 27.66 -34 28 C-33.67 28.33 -33.34 28.66 -33 29 C-31.33391013 29.04384447 -29.66619446 29.0396713 -28 29 C-24.89448334 29 -23.64738916 29.5393715 -21 31 C-21 30.34 -21 29.68 -21 29 C-20.34 28.67 -19.68 28.34 -19 28 C-19.42359556 25.54314575 -19.65510363 24.3035088 -21.5625 22.625 C-23 21 -23 21 -23.1875 17.8125 C-23.125625 16.884375 -23.06375 15.95625 -23 15 C-23.66 15 -24.32 15 -25 15 C-23.75072536 12.50145072 -22.51516622 11.96770761 -20.125 10.5625 C-17.08772389 8.78571747 -17.08772389 8.78571747 -14.62890625 6.3203125 C-13 5 -13 5 -10.08203125 4.92578125 C-8.46361328 5.11720703 -8.46361328 5.11720703 -6.8125 5.3125 C-5.18248047 5.49232422 -5.18248047 5.49232422 -3.51953125 5.67578125 C-2.68808594 5.78277344 -1.85664063 5.88976563 -1 6 C-1.020625 5.195625 -1.04125 4.39125 -1.0625 3.5625 C-1 1 -1 1 0 0 Z " fill="#5DB2E8" transform="translate(153,55)"/>
<path d="M0 0 C-1.57371323 3.14742646 -4.74990491 3.98776906 -7.8125 5.4375 C-11.80918236 7.33970808 -15.5074191 9.2542603 -19 12 C-19.81855469 12.46921875 -20.63710937 12.9384375 -21.48046875 13.421875 C-24.17811227 15.11156179 -26.11573476 16.95283416 -28.3125 19.25 C-31.17341887 22.18695658 -34.05863606 24.97565543 -37.1875 27.625 C-42.84428984 32.50426295 -46.71290434 37.28289148 -50 44 C-51.58396447 46.08149177 -53.2850738 48.021239 -55 50 C-55.66 50.99 -56.32 51.98 -57 53 C-56.4445349 49.10488671 -55.35322214 46.68124737 -53.0625 43.5 C-51.37931415 41.15098387 -50.05622944 39.1467342 -49.01953125 36.44140625 C-47.90608318 33.7751034 -46.71581351 32.40505595 -44.625 30.4375 C-44.00367187 29.84582031 -43.38234375 29.25414063 -42.7421875 28.64453125 C-42.16726562 28.10183594 -41.59234375 27.55914062 -41 27 C-40.2575 26.21625 -39.515 25.4325 -38.75 24.625 C-37 23 -37 23 -34 22 C-32.77479736 18.99152582 -32.77479736 18.99152582 -32 16 C-36.09335584 15.54682356 -36.09335584 15.54682356 -38.5625 18.375 C-39.366875 19.24125 -40.17125 20.1075 -41 21 C-41.99 21.66 -42.98 22.32 -44 23 C-43.52986699 19.70906893 -42.77147147 17.61491763 -40.1328125 15.51171875 C-37.47113721 13.89289657 -34.7679825 12.43012429 -32 11 C-30.30617188 10.11248047 -30.30617188 10.11248047 -28.578125 9.20703125 C-6.52170282 -2.17390094 -6.52170282 -2.17390094 0 0 Z M-46 23 C-44 24 -44 24 -44 24 Z " fill="#2698E4" transform="translate(129,24)"/>
<path d="M0 0 C0.391875 0.556875 0.78375 1.11375 1.1875 1.6875 C4.77490726 6.26453685 8.28404554 10.4461489 14.25390625 11.3359375 C16.56684875 11.37507358 18.71459243 11.37224441 21 11 C23.12355567 9.17728073 23.12355567 9.17728073 24 7 C24 8.98 24 10.96 24 13 C20.04 13 16.08 13 12 13 C11.67 13.99 11.34 14.98 11 16 C11.99 16.33 12.98 16.66 14 17 C13.67 17.66 13.34 18.32 13 19 C11.7315625 18.7834375 11.7315625 18.7834375 10.4375 18.5625 C5.93922291 19.13500799 4.64520083 21.0038983 1.80859375 24.37109375 C-0.40469065 26.36448381 -2.08393096 26.64608393 -5 27 C-5.19676277 18.70316995 -5.25943749 11.04924606 -3 3 C-2.34 3 -1.68 3 -1 3 C-0.67 2.01 -0.34 1.02 0 0 Z " fill="#F5FCFC" transform="translate(90,91)"/>
<path d="M0 0 C0 4.46741091 -2.481972 7.30486873 -5.40625 10.5703125 C-7.09920809 12.0889955 -8.62531789 12.92965891 -10.6875 13.875 C-13.71941762 15.30735814 -16.42047466 16.92065123 -19.1875 18.8125 C-21.93964456 20.59298011 -22.61820251 21.02386234 -26 20.8125 C-26.66 20.544375 -27.32 20.27625 -28 20 C-28 19.67 -28 19.34 -28 19 C-30.33294775 18.95758277 -32.66702567 18.95907063 -35 19 C-35.495 19.495 -35.495 19.495 -36 20 C-38.63378119 20.12603651 -41.23982983 20.1886919 -43.875 20.203125 C-44.67349365 20.20882507 -45.4719873 20.21452515 -46.29467773 20.22039795 C-47.992825 20.22986886 -49.69099083 20.23639019 -51.38916016 20.24023438 C-53.9616025 20.24985638 -56.53321704 20.28082324 -59.10546875 20.3125 C-60.75780777 20.31903844 -62.4101525 20.3242856 -64.0625 20.328125 C-64.82224121 20.3404718 -65.58198242 20.3528186 -66.36474609 20.36553955 C-72.0302849 20.34246484 -76.73471147 19.05169112 -82 17 C-78.71116726 16.08119848 -76.77572066 16.08931595 -73.4453125 16.91796875 C-67.88068353 18.12727204 -62.55621107 18.3462021 -56.875 18.3125 C-55.87017578 18.30686035 -54.86535156 18.3012207 -53.83007812 18.29541016 C-35.81147793 18.00469472 -13.29695921 13.29695921 0 0 Z " fill="#3793D4" transform="translate(233,193)"/>
<path d="M0 0 C-0.24111745 3.31342044 -1.22211512 4.21591808 -3.66015625 6.5859375 C-4.78594917 7.52568483 -5.92056032 8.45494103 -7.0625 9.375 C-7.64797607 9.85815674 -8.23345215 10.34131348 -8.83666992 10.83911133 C-13.12802533 14.35860196 -17.5073887 17.74065454 -22 21 C-22.43957031 20.51917969 -22.87914062 20.03835937 -23.33203125 19.54296875 C-25.45383299 17.58017791 -27.18133384 17.38090083 -30 17 C-27.76701512 14.53944979 -25.57710663 13.12624194 -22.625 11.625 C-19.68690947 10.05203514 -17.86039391 8.85690376 -15.5 6.4375 C-11.12793672 2.1747383 -6.08858726 0 0 0 Z M-32 17 C-31.34 17.33 -30.68 17.66 -30 18 C-31.65 18.66 -33.3 19.32 -35 20 C-34.01 19.01 -33.02 18.02 -32 17 Z " fill="#AD1960" transform="translate(290,115)"/>
<path d="M0 0 C0.33 0.66 0.66 1.32 1 2 C0.06553465 4.03144641 -0.93224776 6.03533587 -2 8 C-2.66 8 -3.32 8 -4 8 C-4.391875 9.2375 -4.78375 10.475 -5.1875 11.75 C-6.4175106 15.47484341 -7.86101658 19.03412109 -9.4375 22.625 C-12.39446835 29.56043485 -14.21387632 36.69585177 -16 44 C-16.66 44 -17.32 44 -18 44 C-18 56.54 -18 69.08 -18 82 C-18.33 80.68 -18.66 79.36 -19 78 C-19.66 78 -20.32 78 -21 78 C-21.66695666 48.12034146 -17.25652324 24.78330465 0 0 Z " fill="#4393C6" transform="translate(64,62)"/>
<path d="M0 0 C1.32 0 2.64 0 4 0 C4.515625 1.010625 5.03125 2.02125 5.5625 3.0625 C7.64184879 6.71421854 10.18560177 9.37107965 13.21875 12.25 C14.91687429 13.91833263 16.38529587 15.64614597 17.875 17.5 C21.41349422 21.68270557 25.54975152 24.83537886 30 28 C30.81210938 28.5775 31.62421875 29.155 32.4609375 29.75 C46.58850401 39.25322792 61.50184723 43.57090611 78 47 C78 47.33 78 47.66 78 48 C57.73711192 49.65411331 35.75471308 36.88059212 20.74609375 24.3359375 C13.11266475 17.69540655 4.12065679 9.37117109 0 0 Z " fill="#5495C0" transform="translate(60,185)"/>
<path d="M0 0 C4.24176331 0.70696055 6.61617045 2.57353255 10.08203125 5.0234375 C14.80728847 8.19507523 18.91972581 10.00107561 24.625 9.0625 C28.375 8.5625 28.375 8.5625 30.8125 9.5 C33.21320887 12.66893571 33.87026694 15.69234261 33.375 19.5625 C31.98378212 22.72600847 30.28596724 24.69705975 27.375 26.5625 C24.62161382 27.0843282 22.00650902 27.1890319 19.20703125 27.265625 C14.69007425 27.7391267 10.89807661 29.72765231 7.375 32.5625 C7.045 33.5525 6.715 34.5425 6.375 35.5625 C4.45512214 36.29072953 2.53144487 37.01127222 0.5859375 37.66796875 C-2.92514665 39.08853106 -5.63468489 41.25746544 -8.625 43.5625 C-8.625 42.5725 -8.625 41.5825 -8.625 40.5625 C-4.73578506 36.89552591 -1.03818919 34.5625 4.375 34.5625 C4.436875 33.95792969 4.49875 33.35335937 4.5625 32.73046875 C5.375 30.5625 5.375 30.5625 7.625 29.11328125 C8.98625 28.50033203 8.98625 28.50033203 10.375 27.875 C13.6043461 26.56208037 13.6043461 26.56208037 16.375 24.5625 C18.22391946 24.32886119 20.07988031 24.14946365 21.9375 24 C23.45537109 23.87431641 23.45537109 23.87431641 25.00390625 23.74609375 C25.78636719 23.68550781 26.56882813 23.62492187 27.375 23.5625 C27.87 22.0775 27.87 22.0775 28.375 20.5625 C29.035 20.2325 29.695 19.9025 30.375 19.5625 C30.375 17.2525 30.375 14.9425 30.375 12.5625 C26.90587705 12.00744033 23.64328703 11.55734063 20.125 11.625 C17.375 11.5625 17.375 11.5625 14.375 9.5625 C12.05391331 8.85437186 9.72122853 8.18225848 7.375 7.5625 C7.375 6.9025 7.375 6.2425 7.375 5.5625 C3.95484364 3.4577884 1.34132047 3.39372041 -2.625 3.5625 C-3.615 3.5625 -4.605 3.5625 -5.625 3.5625 C-3.89133231 1.25094308 -2.85670988 0.61215212 0 0 Z " fill="#6CB3DF" transform="translate(99.625,108.4375)"/>
<path d="M0 0 C-2.38884522 2.27827966 -4.78726306 4.54622977 -7.1875 6.8125 C-7.86103516 7.45509766 -8.53457031 8.09769531 -9.22851562 8.75976562 C-12.63278944 11.96476488 -15.81946056 14.81637843 -20 17 C-19.34 15.68 -18.68 14.36 -18 13 C-17.34 13 -16.68 13 -16 13 C-16.83333333 10.83333333 -16.83333333 10.83333333 -19 10 C-18.195625 9.87625 -17.39125 9.7525 -16.5625 9.625 C-15.716875 9.41875 -14.87125 9.2125 -14 9 C-13.67 8.34 -13.34 7.68 -13 7 C-12.01 7 -11.02 7 -10 7 C-10 6.01 -10 5.02 -10 4 C-9.01 4 -8.02 4 -7 4 C-7 3.34 -7 2.68 -7 2 C-19.95046861 4.08045585 -19.95046861 4.08045585 -32 9 C-32.99 10.485 -32.99 10.485 -34 12 C-35.66279327 13.0064275 -37.32983484 14.00585407 -39 15 C-43.06655997 18.02087312 -43.70494182 20.99679615 -44.5078125 25.78125 C-45.02324696 28.1047958 -45.85696916 29.9217621 -47 32 C-47.99 31.67 -48.98 31.34 -50 31 C-49.360625 30.175 -48.72125 29.35 -48.0625 28.5 C-46.1571063 25.70104236 -45.9792614 24.74284134 -45.6875 21.125 C-45.27931902 16.58290099 -43.31854698 14.04462627 -40.19140625 10.81640625 C-31.82061522 3.87805005 -10.71743579 -3.5724786 0 0 Z " fill="#BE4062" transform="translate(246,115)"/>
<path d="M0 0 C0.66 0.33 1.32 0.66 2 1 C-8.09203648 9.7369935 -18.49698724 16.75329662 -30.8125 21.9375 C-31.85204834 22.37956787 -31.85204834 22.37956787 -32.91259766 22.83056641 C-37.62757329 24.72579067 -41.93744646 25.55213692 -47 26 C-43.81237635 23.87491756 -41.73487777 23.4979837 -38 23 C-38 22.34 -38 21.68 -38 21 C-36.02 20.67 -34.04 20.34 -32 20 C-31.67 18.68 -31.34 17.36 -31 16 C-29.35 16.33 -27.7 16.66 -26 17 C-25.93232422 16.09701172 -25.93232422 16.09701172 -25.86328125 15.17578125 C-25 13 -25 13 -22.48046875 11.54296875 C-21.39378906 11.09566406 -20.30710938 10.64835938 -19.1875 10.1875 C-13.2532842 7.63303624 -7.85485122 4.64852308 -2.36328125 1.22265625 C-1.58339844 0.81917969 -0.80351562 0.41570312 0 0 Z " fill="#68AFDD" transform="translate(223,205)"/>
<path d="M0 0 C-4.74690201 3.16460134 -10.16188858 3.79136599 -15.6875 5 C-16.82767578 5.26039063 -17.96785156 5.52078125 -19.14257812 5.7890625 C-34.4478191 9.17691908 -49.09247547 10.31194334 -64.71191406 10.20581055 C-67.52417946 10.1873412 -70.33611718 10.18530317 -73.1484375 10.18554688 C-74.96354448 10.18063691 -76.77864927 10.17481088 -78.59375 10.16796875 C-79.83457336 10.16629951 -79.83457336 10.16629951 -81.10046387 10.16459656 C-86.1477346 10.12376489 -91.00265639 9.71692 -96 9 C-96 8.67 -96 8.34 -96 8 C-94.87207031 8.00523682 -93.74414062 8.01047363 -92.58203125 8.01586914 C-88.3177167 8.03424091 -84.05340549 8.04554708 -79.7890625 8.05493164 C-77.95832731 8.0598995 -76.12759595 8.06667607 -74.296875 8.07543945 C-58.7983377 8.147664 -43.47457679 8.10816508 -28.2421875 4.8984375 C-27.56510742 4.75631836 -26.88802734 4.61419922 -26.19042969 4.46777344 C-23.77494253 3.95193824 -21.36002287 3.43352193 -18.9453125 2.9140625 C-18.09171143 2.73141846 -17.23811035 2.54877441 -16.35864258 2.3605957 C-14.69831538 2.00318516 -13.03921512 1.64001173 -11.3815918 1.27026367 C-7.51875311 0.42912532 -3.98177353 -0.23140568 0 0 Z " fill="#90326F" transform="translate(184,183)"/>
<path d="M0 0 C1.0725 0.2475 2.145 0.495 3.25 0.75 C3.25 1.08 3.25 1.41 3.25 1.75 C0.94 2.08 -1.37 2.41 -3.75 2.75 C-4.99813815 6.49441446 -5.11714448 10.03823177 -5.37109375 13.9609375 C-5.76155705 16.83506945 -6.56588854 19.11331457 -7.75 21.75 C-8.41 21.75 -9.07 21.75 -9.75 21.75 C-10.08 23.73 -10.41 25.71 -10.75 27.75 C-9.1721875 28.059375 -9.1721875 28.059375 -7.5625 28.375 C-4.41747664 29.23561001 -3.053976 30.26194625 -1.125 32.875 C0.9351141 36.03244437 0.9351141 36.03244437 4.0625 36.125 C4.784375 36.00125 5.50625 35.8775 6.25 35.75 C6.37375 35.13125 6.4975 34.5125 6.625 33.875 C7.25 31.75 7.25 31.75 9.25 29.75 C9.92940467 27.32284794 9.92940467 27.32284794 10.375 24.625 C10.54257813 23.71492188 10.71015625 22.80484375 10.8828125 21.8671875 C11.00398438 21.16851562 11.12515625 20.46984375 11.25 19.75 C12.57 19.42 13.89 19.09 15.25 18.75 C14.92 19.41 14.59 20.07 14.25 20.75 C13.59 20.75 12.93 20.75 12.25 20.75 C12.37375 22.235 12.37375 22.235 12.5 23.75 C12.5107126 29.02059911 10.14985723 33.53016682 6.765625 37.484375 C5.25 38.75 5.25 38.75 2.8125 38.75 C0.25 37.75 0.25 37.75 -1.5625 35.4375 C-4.09189071 32.32996284 -6.3464377 31.24025875 -9.9453125 29.64453125 C-11.75 28.75 -11.75 28.75 -13.75 26.75 C-13.51173586 24.28793723 -13.17684064 23.11360499 -11.2734375 21.4921875 C-9.15296659 19.06723872 -9.01980491 16.97454845 -8.5625 13.8125 C-8.40394531 12.77222656 -8.24539062 11.73195313 -8.08203125 10.66015625 C-7.67442765 7.5758033 -7.67442765 7.5758033 -7.75 3.75 C-5.30753155 0.13514669 -4.43382452 -0.2955883 0 0 Z " fill="#8CC8DB" transform="translate(192.75,75.25)"/>
<path d="M0 0 C0.99 0.33 1.98 0.66 3 1 C1.68 3.31 0.36 5.62 -1 8 C-1.70125 7.89558594 -2.4025 7.79117188 -3.125 7.68359375 C-9.25784615 7.15234748 -9.25784615 7.15234748 -14.51171875 10.00390625 C-16.48046234 12.26248283 -18.29482004 14.53750516 -20 17 C-19.38125 18.093125 -18.7625 19.18625 -18.125 20.3125 C-17.77695313 20.92738281 -17.42890625 21.54226562 -17.0703125 22.17578125 C-16.10571419 23.81982289 -15.05732941 25.41400588 -14 27 C-13.6875 29.5625 -13.6875 29.5625 -14 32 C-18.06849409 34.71232939 -20.16476784 34.30699887 -25 34 C-25.66 33.34 -26.32 32.68 -27 32 C-23.37 32 -19.74 32 -16 32 C-16.33 29.69 -16.66 27.38 -17 25 C-17.804375 24.71125 -18.60875 24.4225 -19.4375 24.125 C-22 23 -22 23 -23 21 C-23.039992 19.00039988 -23.04346799 16.99952758 -23 15 C-23.66 15 -24.32 15 -25 15 C-23.75072536 12.50145072 -22.51516622 11.96770761 -20.125 10.5625 C-17.08772389 8.78571747 -17.08772389 8.78571747 -14.62890625 6.3203125 C-13 5 -13 5 -10.08203125 4.92578125 C-8.46361328 5.11720703 -8.46361328 5.11720703 -6.8125 5.3125 C-5.18248047 5.49232422 -5.18248047 5.49232422 -3.51953125 5.67578125 C-2.68808594 5.78277344 -1.85664063 5.88976563 -1 6 C-1.020625 5.195625 -1.04125 4.39125 -1.0625 3.5625 C-1 1 -1 1 0 0 Z " fill="#69B0DF" transform="translate(153,55)"/>
<path d="M0 0 C7.59064664 0.48701051 14.67059167 1.99763587 22 4 C22 4.66 22 5.32 22 6 C24.475 6.99 24.475 6.99 27 8 C27 8.33 27 8.66 27 9 C25.53240234 9.05607422 25.53240234 9.05607422 24.03515625 9.11328125 C15.46999087 9.54280282 8.2013799 10.46274151 0.4375 14.25 C-1.31314926 16.07384556 -1.31314926 16.07384556 -1.5 19.4375 C-0.92255297 23.5518101 0.07800752 24.26652316 3 27 C2.81367553 30.07435378 1.75085936 31.37371096 0 34 C-1.9453125 34.29296875 -1.9453125 34.29296875 -4.125 34.1875 C-5.40375 34.125625 -6.6825 34.06375 -8 34 C-8 33.67 -8 33.34 -8 33 C-6.02 33 -4.04 33 -2 33 C-0.83642813 28.60193389 -0.83642813 28.60193389 -2.4375 24.5 C-2.953125 23.675 -3.46875 22.85 -4 22 C-4.4375 18.9375 -4.4375 18.9375 -4 16 C-2.125 13.625 -2.125 13.625 0 12 C0.66 12 1.32 12 2 12 C2 11.34 2 10.68 2 10 C7.6702363 8.45357192 13.147205 7.51482919 19 7 C18.28972656 6.79503906 17.57945312 6.59007812 16.84765625 6.37890625 C15.92855469 6.10949219 15.00945312 5.84007812 14.0625 5.5625 C13.14597656 5.29566406 12.22945312 5.02882813 11.28515625 4.75390625 C9 4 9 4 8 3 C6.845 2.855625 5.69 2.71125 4.5 2.5625 C3.345 2.376875 2.19 2.19125 1 2 C0.67 1.34 0.34 0.68 0 0 Z " fill="#5595BF" transform="translate(166,21)"/>
<path d="M0 0 C4.85870962 1.47873771 9.21754598 3.50892681 13.75 5.75 C22.57338174 10.02491326 31.64507071 13.11146043 41 16 C41 16.33 41 16.66 41 17 C36.53160785 17.21278058 33.17737474 16.59138085 29 15 C29 15.66 29 16.32 29 17 C30.98 17.66 32.96 18.32 35 19 C34.34 19.66 33.68 20.32 33 21 C23.97152293 16.47458761 15.25590851 11.74731572 6.9375 6 C6.24140625 5.51942139 5.5453125 5.03884277 4.828125 4.54370117 C3.19590736 3.39423756 1.59424077 2.2015812 0 1 C0 0.67 0 0.34 0 0 Z " fill="#B53C67" transform="translate(9,156)"/>
<path d="M0 0 C-2.37516784 1.4251007 -4.75076522 2.84939313 -7.12890625 4.26953125 C-9.00022202 5.39741273 -10.86277183 6.54000827 -12.71484375 7.69921875 C-13.57207031 8.23160156 -14.42929687 8.76398438 -15.3125 9.3125 C-16.48232422 10.04919922 -16.48232422 10.04919922 -17.67578125 10.80078125 C-20.13126392 12.06772777 -22.27905917 12.59065492 -25 13 C-25 12.34 -25 11.68 -25 11 C-24.34 11 -23.68 11 -23 11 C-23 10.34 -23 9.68 -23 9 C-24.98 9 -26.96 9 -29 9 C-29.33 8.34 -29.66 7.68 -30 7 C-29.31897217 6.79318604 -28.63794434 6.58637207 -27.9362793 6.37329102 C-24.85322618 5.43677714 -21.7703611 4.49964576 -18.6875 3.5625 C-17.61564453 3.23701172 -16.54378906 2.91152344 -15.43945312 2.57617188 C-14.41142578 2.26357422 -13.38339844 1.95097656 -12.32421875 1.62890625 C-11.37635498 1.34088135 -10.42849121 1.05285645 -9.4519043 0.75610352 C-3.48885128 -1.08274695 -3.48885128 -1.08274695 0 0 Z " fill="#CD2B60" transform="translate(273,124)"/>
<path d="M0 0 C1.4800841 0.11362262 2.95910074 0.24122908 4.4375 0.375 C5.26121094 0.44460937 6.08492187 0.51421875 6.93359375 0.5859375 C7.95646484 0.79089844 7.95646484 0.79089844 9 1 C9.33 1.66 9.66 2.32 10 3 C12.31293307 3.54475671 12.31293307 3.54475671 15.0625 3.875 C18.73614103 4.46843432 21.60405421 5.11678182 24.8125 7 C29.46872587 9.58679215 34.34186899 9.93263114 39.56640625 10.5625 C43.80064121 11.10201572 47.85377662 11.99918746 52 13 C52 13.33 52 13.66 52 14 C33.89797918 15.2556315 16.17063262 8.52770829 0 1 C0 0.67 0 0.34 0 0 Z " fill="#A93C72" transform="translate(44,177)"/>
<path d="M0 0 C0.66 0.33 1.32 0.66 2 1 C1.67 2.32 1.34 3.64 1 5 C-1.475 4.505 -1.475 4.505 -4 4 C-4.66 5.32 -5.32 6.64 -6 8 C-6.66 8 -7.32 8 -8 8 C-8 8.66 -8 9.32 -8 10 C-7.34 10.33 -6.68 10.66 -6 11 C-6.928125 11.53625 -7.85625 12.0725 -8.8125 12.625 C-12.25787209 15.19213999 -13.52458223 17.0076931 -15 21 C-14.67 21.66 -14.34 22.32 -14 23 C-14.66 23 -15.32 23 -16 23 C-15.67 24.65 -15.34 26.3 -15 28 C-17.31 28.66 -19.62 29.32 -22 30 C-21.52269162 28.5410574 -21.04308958 27.08286504 -20.5625 25.625 C-20.29566406 24.81289062 -20.02882812 24.00078125 -19.75390625 23.1640625 C-19 21 -19 21 -18 19 C-17.34 19 -16.68 19 -16 19 C-15.7215625 17.7625 -15.7215625 17.7625 -15.4375 16.5 C-12.95743385 10.46157806 -7.58789223 4.17448014 -1.9375 0.75 C-1.298125 0.5025 -0.65875 0.255 0 0 Z " fill="#2A9EEC" transform="translate(78,51)"/>
<path d="M0 0 C0.66 0.33 1.32 0.66 2 1 C0 4 0 4 -3.22265625 4.9140625 C-4.48980469 5.14867187 -5.75695312 5.38328125 -7.0625 5.625 C-11.3569118 6.09092191 -11.3569118 6.09092191 -15 8 C-17.63378119 8.12603651 -20.23982983 8.1886919 -22.875 8.203125 C-23.67349365 8.20882507 -24.4719873 8.21452515 -25.29467773 8.22039795 C-26.992825 8.22986886 -28.69099083 8.23639019 -30.38916016 8.24023438 C-32.9616025 8.24985638 -35.53321704 8.28082324 -38.10546875 8.3125 C-39.75780777 8.31903844 -41.4101525 8.3242856 -43.0625 8.328125 C-43.82224121 8.3404718 -44.58198242 8.3528186 -45.36474609 8.36553955 C-51.0302849 8.34246484 -55.73471147 7.05169112 -61 5 C-57.71116726 4.08119848 -55.77572066 4.08931595 -52.4453125 4.91796875 C-46.88033976 6.12734675 -41.5564347 6.34477814 -35.875 6.3125 C-34.87525146 6.30903564 -33.87550293 6.30557129 -32.84545898 6.30200195 C-21.3051551 6.13450977 -10.75095263 4.30038105 0 0 Z " fill="#5394BF" transform="translate(212,205)"/>
<path d="M0 0 C0.495 0.99 0.495 0.99 1 2 C0.34 3.32 -0.32 4.64 -1 6 C-4.3 6 -7.6 6 -11 6 C-11 7.65 -11 9.3 -11 11 C-13 13 -13 13 -15.27734375 13.16015625 C-16.59412109 13.11181641 -16.59412109 13.11181641 -17.9375 13.0625 C-21.08813597 12.95577743 -22.97001351 12.9900045 -26 14 C-26.33 14.99 -26.66 15.98 -27 17 C-30 19 -30 19 -32.1875 18.625 C-33.0846875 18.315625 -33.0846875 18.315625 -34 18 C-31.20266286 14.25748751 -28.86075183 11.29682234 -24.0859375 10.53515625 C-21.36040997 10.55980572 -18.70736727 10.69156575 -16 11 C-15.54625 9.865625 -15.0925 8.73125 -14.625 7.5625 C-13.546875 5.61328125 -13.546875 5.61328125 -12 4 C-9.34273982 3.36140038 -6.97140461 3.24942787 -4.2421875 3.265625 C-3.50226563 3.17796875 -2.76234375 3.0903125 -2 3 C-1.34 2.01 -0.68 1.02 0 0 Z " fill="#E2F8FD" transform="translate(168,51)"/>
<path d="M0 0 C-1.39247662 2.78495324 -3.3856243 3.03207794 -6.16015625 4.1328125 C-8.26848791 5.03144844 -8.26848791 5.03144844 -10.6875 7.25 C-11.450625 7.8275 -12.21375 8.405 -13 9 C-13.61875 8.835 -14.2375 8.67 -14.875 8.5 C-18.045911 7.75390329 -19.780513 9.22950211 -22.51171875 10.796875 C-24.3090052 12.0287454 -24.3090052 12.0287454 -25 15 C-25.99 15.33 -26.98 15.66 -28 16 C-27.50507379 12.53551656 -26.71136947 10.53648567 -23.88671875 8.40625 C-21.29278659 6.86327366 -18.6623081 5.42123214 -16 4 C-14.74853091 3.23155407 -13.49831266 2.46106288 -12.25 1.6875 C-7.86945084 -0.58701591 -4.73739408 -1.57913136 0 0 Z M-30 16 C-28 17 -28 17 -28 17 Z " fill="#1A9CF2" transform="translate(113,31)"/>
<path d="M0 0 C0.83152588 0.0707373 1.66305176 0.14147461 2.51977539 0.21435547 C11.50995026 0.92487835 20.41767646 1.15220912 29.4375 1.125 C31.40106445 1.13080078 31.40106445 1.13080078 33.40429688 1.13671875 C35.30598633 1.13478516 35.30598633 1.13478516 37.24609375 1.1328125 C38.94270142 1.13112061 38.94270142 1.13112061 40.67358398 1.12939453 C44.17301997 0.99326968 47.54377126 0.55214125 51 0 C48.40142074 3.32040683 46.07722566 3.49230874 42 4 C39.78780139 4.08890395 37.57335823 4.13060041 35.359375 4.1328125 C34.12445313 4.13410156 32.88953125 4.13539063 31.6171875 4.13671875 C30.34101562 4.13285156 29.06484375 4.12898437 27.75 4.125 C26.45835938 4.12886719 25.16671875 4.13273438 23.8359375 4.13671875 C22.60617188 4.13542969 21.37640625 4.13414062 20.109375 4.1328125 C18.98499023 4.13168457 17.86060547 4.13055664 16.70214844 4.12939453 C14 4 14 4 12 3 C9.14693938 2.72641885 6.29429544 2.55374758 3.43359375 2.37890625 C2.63050781 2.25386719 1.82742187 2.12882813 1 2 C0.67 1.34 0.34 0.68 0 0 Z " fill="#99417C" transform="translate(59,175)"/>
<path d="M0 0 C2 3 2 3 2 6 C2.99 6.33 3.98 6.66 5 7 C4.67 9.31 4.34 11.62 4 14 C4.66 14 5.32 14 6 14 C6 14.66 6 15.32 6 16 C7.65 16.33 9.3 16.66 11 17 C11 17.66 11 18.32 11 19 C14.3 19 17.6 19 21 19 C20.67 19.66 20.34 20.32 20 21 C13.90095495 21.63531719 9.80936585 21.04971294 4.73046875 17.51171875 C2.17184372 15.27653165 0.65190768 12.95966793 -1 10 C-1.66 10.66 -2.32 11.32 -3 12 C-2.49202991 7.6822542 -1.80317221 3.96697886 0 0 Z " fill="#73B8E2" transform="translate(91,82)"/>
<path d="M0 0 C3.0953597 1.54767985 3.56533892 4.13557842 4.9375 7.25 C6.38444251 10.52134828 7.79129796 13.65628455 9.6484375 16.71484375 C11.27023809 19.45690544 11.63479693 21.85925357 12 25 C10.35 25 8.7 25 7 25 C7 23.02 7 21.04 7 19 C6.01 18.67 5.02 18.34 4 18 C4 17.34 4 16.68 4 16 C3.34 16 2.68 16 2 16 C0.80911014 10.61972975 -0.2919519 5.54708616 0 0 Z " fill="#4693C3" transform="translate(89,150)"/>
<path d="M0 0 C-0.22893729 3.35511547 -1.24576142 4.2359169 -3.73046875 6.62109375 C-4.8750299 7.56936863 -6.02772701 8.50789144 -7.1875 9.4375 C-7.75275391 9.90220703 -8.31800781 10.36691406 -8.90039062 10.84570312 C-10.03279263 11.77575151 -11.16933997 12.7007765 -12.31005859 13.62060547 C-13.45097147 14.55186201 -14.57878532 15.49936709 -15.69384766 16.46142578 C-19.79580178 20 -19.79580178 20 -22 20 C-21.6875 18.0625 -21.6875 18.0625 -21 16 C-20.01 15.67 -19.02 15.34 -18 15 C-17.34 14.175 -16.68 13.35 -16 12.5 C-14 10 -14 10 -11 9 C-10.67 8.01 -10.34 7.02 -10 6 C-9.01 6 -8.02 6 -7 6 C-7 5.34 -7 4.68 -7 4 C-8.32 3.67 -9.64 3.34 -11 3 C-4.5 0 -4.5 0 0 0 Z " fill="#992D67" transform="translate(290,115)"/>
<path d="M0 0 C2.0625 0.4375 2.0625 0.4375 4 1 C-4.81346083 5.79940936 -13.6727536 9.83773965 -23.1875 13.0625 C-24.08364014 13.37324463 -24.97978027 13.68398926 -25.90307617 14.00415039 C-26.75361572 14.28250732 -27.60415527 14.56086426 -28.48046875 14.84765625 C-29.23223389 15.09523682 -29.98399902 15.34281738 -30.75854492 15.59790039 C-33.42464618 16.07617822 -35.39604288 15.67170225 -38 15 C-38 14.67 -38 14.34 -38 14 C-36.865625 13.73445312 -35.73125 13.46890625 -34.5625 13.1953125 C-33.04165952 12.83857214 -31.52082659 12.48179958 -30 12.125 C-29.25621094 11.95097656 -28.51242188 11.77695313 -27.74609375 11.59765625 C-22.81947641 10.44097218 -17.90686184 9.23786742 -13 8 C-13 7.01 -13 6.02 -13 5 C-11.02 5 -9.04 5 -7 5 C-6.67 4.01 -6.34 3.02 -6 2 C-4.7934375 1.7834375 -4.7934375 1.7834375 -3.5625 1.5625 C-1.07896294 1.25864751 -1.07896294 1.25864751 0 0 Z " fill="#9F3167" transform="translate(221,167)"/>
<path d="M0 0 C1.66611905 -0.042721 3.33382885 -0.04063832 5 0 C5.33 0.33 5.66 0.66 6 1 C8.32817964 1.36760731 10.6618385 1.70241581 13 2 C13 2.66 13 3.32 13 4 C14.65 4.33 16.3 4.66 18 5 C18 6.65 18 8.3 18 10 C17.43410156 9.68933594 16.86820313 9.37867188 16.28515625 9.05859375 C13.29529065 7.6735449 10.35055363 7.2210911 7.12109375 6.66015625 C4.66778596 5.89660373 3.69721736 4.88415724 2 3 C1.34 2.67 0.68 2.34 0 2 C0 1.34 0 0.68 0 0 Z " fill="#C4275F" transform="translate(38,171)"/>
<path d="M0 0 C0.33 0 0.66 0 1 0 C0.98952637 0.94206299 0.97905273 1.88412598 0.96826172 2.85473633 C0.9338633 6.40147423 0.90894887 9.94803091 0.89013672 13.49487305 C0.88017401 15.02029241 0.86659891 16.54569316 0.84912109 18.07104492 C0.75904647 26.14332086 0.77188218 33.8984444 2.66455078 41.80737305 C3.02866159 44.18734332 2.74201321 45.72949151 2 48 C-1.63507256 42.54739116 -1.15074266 36.14358804 -1.1328125 29.765625 C-1.13376923 29.00578308 -1.13472595 28.24594116 -1.13571167 27.46307373 C-1.1363878 25.86975013 -1.13457339 24.27642368 -1.13037109 22.68310547 C-1.12498477 20.24310173 -1.13035056 17.80327956 -1.13671875 15.36328125 C-1.13605845 13.80989543 -1.13477829 12.25650972 -1.1328125 10.703125 C-1.13483673 9.97498596 -1.13686096 9.24684692 -1.13894653 8.49664307 C-1.12450448 5.39072589 -0.98999404 2.96998213 0 0 Z " fill="#D2F2FC" transform="translate(43,107)"/>
<path d="M0 0 C0.99 1.32 1.98 2.64 3 4 C2.67 4.66 2.34 5.32 2 6 C1.34 6 0.68 6 0 6 C-2.48044315 9.72066472 -2.44381173 12.86540474 -2.625 17.1875 C-2.66367188 17.93708984 -2.70234375 18.68667969 -2.7421875 19.45898438 C-2.83628216 21.30559199 -2.91922319 23.1527619 -3 25 C-2.01 25.33 -1.02 25.66 0 26 C-1.65 26.33 -3.3 26.66 -5 27 C-5.19676277 18.70316995 -5.25943749 11.04924606 -3 3 C-2.34 3 -1.68 3 -1 3 C-0.67 2.01 -0.34 1.02 0 0 Z " fill="#D7F6FC" transform="translate(90,91)"/>
<path d="M0 0 C0 4.62073667 -2.7490738 7.38422033 -5.5 10.9375 C-7 12 -7 12 -9.1875 11.6875 C-9.785625 11.460625 -10.38375 11.23375 -11 11 C-11 11.33 -11 11.66 -11 12 C-13.31 12 -15.62 12 -18 12 C-13.84074454 8.71479098 -9.27743478 6.23472759 -4.6796875 3.62109375 C-1.96575413 2.12509163 -1.96575413 2.12509163 0 0 Z " fill="#4591C0" transform="translate(233,193)"/>
<path d="M0 0 C0.99 0.33 1.98 0.66 3 1 C1.68 3.31 0.36 5.62 -1 8 C-2.06927734 7.89558594 -2.06927734 7.89558594 -3.16015625 7.7890625 C-8.50534662 7.48691177 -12.03028448 7.35602096 -16.1875 11 C-17.15109582 11.97487914 -18.09910937 12.96689675 -19 14 C-19.33 12.68 -19.66 11.36 -20 10 C-19.401875 9.731875 -18.80375 9.46375 -18.1875 9.1875 C-15.95933192 8.16536199 -15.95933192 8.16536199 -14.75 6.40625 C-13 5 -13 5 -10.08203125 4.92578125 C-8.46361328 5.11720703 -8.46361328 5.11720703 -6.8125 5.3125 C-5.18248047 5.49232422 -5.18248047 5.49232422 -3.51953125 5.67578125 C-2.68808594 5.78277344 -1.85664063 5.88976563 -1 6 C-1.020625 5.195625 -1.04125 4.39125 -1.0625 3.5625 C-1 1 -1 1 0 0 Z " fill="#57A4D6" transform="translate(153,55)"/>
<path d="M0 0 C-10.05369712 6.20963646 -10.05369712 6.20963646 -12.88671875 5.58203125 C-13.58410156 5.38996094 -14.28148438 5.19789063 -15 5 C-16.58211573 4.93451508 -18.16670081 4.91421619 -19.75 4.9375 C-20.94882813 4.95103516 -20.94882813 4.95103516 -22.171875 4.96484375 C-23.07679687 4.98224609 -23.07679687 4.98224609 -24 5 C-20.23552802 2.83346795 -16.17711559 1.86056252 -12 0.8125 C-11.2884375 0.62236328 -10.576875 0.43222656 -9.84375 0.23632812 C-3.40383599 -1.39167253 -3.40383599 -1.39167253 0 0 Z " fill="#BC3B68" transform="translate(138,169)"/>
<path d="M0 0 C2.0625 0.6875 2.0625 0.6875 5 2 C8.31763901 3.0532995 11.65811668 4.02663593 15 5 C15 5.33 15 5.66 15 6 C12.85423363 6.02685938 10.70837355 6.04633088 8.5625 6.0625 C7.36753906 6.07410156 6.17257813 6.08570313 4.94140625 6.09765625 C2 6 2 6 1 5 C-1.0587768 4.72046781 -3.11728432 4.55265649 -5.1875 4.37890625 C-6.0846875 4.19134766 -6.0846875 4.19134766 -7 4 C-7.33 3.34 -7.66 2.68 -8 2 C-6.8553125 2.061875 -6.8553125 2.061875 -5.6875 2.125 C-2.77281584 2.22080824 -2.77281584 2.22080824 0 0 Z " fill="#5DB0F3" transform="translate(63,169)"/>
<path d="M0 0 C0.66 0.33 1.32 0.66 2 1 C-9.52164009 10.59453303 -9.52164009 10.59453303 -15 14 C-15.66 13.67 -16.32 13.34 -17 13 C-15.87262589 9.61787768 -15.36237641 9.29879235 -12.47265625 7.484375 C-11.76302734 7.03835937 -11.05339844 6.59234375 -10.32226562 6.1328125 C-9.20368164 5.44832031 -9.20368164 5.44832031 -8.0625 4.75 C-7.32064453 4.27820313 -6.57878906 3.80640625 -5.81445312 3.3203125 C-1.68259384 0.7580353 -1.68259384 0.7580353 0 0 Z " fill="#63B0DF" transform="translate(223,205)"/>
<path d="M0 0 C1.32 1.32 2.64 2.64 4 4 C3.67 4.66 3.34 5.32 3 6 C-4.59 6 -12.18 6 -20 6 C-20.33 5.34 -20.66 4.68 -21 4 C-13.74 4 -6.48 4 1 4 C0.67 2.68 0.34 1.36 0 0 Z " fill="#5E80BA" transform="translate(100,171)"/>
<path d="M0 0 C0.33 0.66 0.66 1.32 1 2 C-0.19302346 5.57907038 -0.77022504 6.1428794 -4 8 C-6.31550527 8.59329672 -8.62194829 9.06196773 -10.9765625 9.47265625 C-13.20973739 9.87245547 -13.20973739 9.87245547 -15 12 C-17.68839385 12.26991906 -20.29141936 12.08737357 -23 12 C-18.29004604 9.53344057 -13.32734028 7.64175827 -8.41015625 5.6328125 C-5.15567768 4.07453983 -2.70254044 2.36921003 0 0 Z " fill="#B9466B" transform="translate(195,147)"/>
<path d="M0 0 C0.97747347 3.07667309 0.96944681 4.98795537 0.1328125 8.08984375 C-1.11840688 13.21984319 -1.65493012 18.31081771 -2.125 23.5625 C-2.21136719 24.47580078 -2.29773438 25.38910156 -2.38671875 26.33007812 C-2.59620555 28.55296584 -2.80054684 30.77619349 -3 33 C-3.12375 32.360625 -3.2475 31.72125 -3.375 31.0625 C-3.58125 30.381875 -3.7875 29.70125 -4 29 C-4.66 28.67 -5.32 28.34 -6 28 C-5.67 27.67 -5.34 27.34 -5 27 C-5 25.845 -5 24.69 -5 23.5 C-5 20 -5 20 -4 19 C-3.71756753 17.67508119 -3.48697793 16.33897497 -3.28125 15 C-3.15363281 14.195625 -3.02601562 13.39125 -2.89453125 12.5625 C-2.76433594 11.716875 -2.63414063 10.87125 -2.5 10 C-2.24330542 8.33275601 -1.98307543 6.66605122 -1.71875 5 C-1.60466797 4.2575 -1.49058594 3.515 -1.37304688 2.75 C-1 1 -1 1 0 0 Z " fill="#478FC0" transform="translate(87,90)"/>
<path d="M0 0 C0.33 0.66 0.66 1.32 1 2 C-2.45185319 5.64362281 -6.18269638 8.98053699 -10.5625 11.4375 C-13.79488888 13.50954415 -15.64693238 15.97462735 -18 19 C-18.66 18.67 -19.32 18.34 -20 18 C-15.5012096 11.87697098 -11.84570505 7.3582704 -5 4 C-3.30556653 2.70213607 -1.62748024 1.38089233 0 0 Z " fill="#2D96DD" transform="translate(85,43)"/>
<path d="M0 0 C-2.55404101 1.60539721 -4.90766477 2.96642355 -7.75 4 C-8.4925 4.33 -9.235 4.66 -10 5 C-10.33 5.99 -10.66 6.98 -11 8 C-9.84338843 10.20807663 -8.77322566 12.22677434 -7 14 C-6.95936168 15.66617115 -6.957279 17.33388095 -7 19 C-7.33 18.01 -7.66 17.02 -8 16 C-8.99 15.67 -9.98 15.34 -11 15 C-13.48836965 11.26744552 -13.54226552 9.41559065 -13 5 C-10.75 2.6875 -10.75 2.6875 -8 1 C-7.319375 0.566875 -6.63875 0.13375 -5.9375 -0.3125 C-3.57043902 -1.15242486 -2.33106248 -0.83252231 0 0 Z " fill="#DAF6FC" transform="translate(177,32)"/>
<path d="M0 0 C-1.98 1.65 -3.96 3.3 -6 5 C-6.33 4.34 -6.66 3.68 -7 3 C-9.86724686 3.57344937 -10.8614515 3.8614515 -13 6 C-13.66 5.67 -14.32 5.34 -15 5 C-15.9590625 5.2784375 -15.9590625 5.2784375 -16.9375 5.5625 C-17.618125 5.706875 -18.29875 5.85125 -19 6 C-19.99 5.34 -20.98 4.68 -22 4 C-19.08644159 3.13372595 -16.16995672 2.28168994 -13.25 1.4375 C-12.425 1.19064453 -11.6 0.94378906 -10.75 0.68945312 C-9.95078125 0.46064453 -9.1515625 0.23183594 -8.328125 -0.00390625 C-7.5949707 -0.21861572 -6.86181641 -0.4333252 -6.10644531 -0.65454102 C-3.76130184 -1.03914672 -2.24174192 -0.72878764 0 0 Z " fill="#BE446C" transform="translate(172,160)"/>
<path d="M0 0 C7.74152536 -0.39363688 14.52058632 1.05789567 22 3 C22 3.33 22 3.66 22 4 C14.37685526 4.23576736 7.41430591 3.83717315 0 2 C0 1.34 0 0.68 0 0 Z " fill="#A33578" transform="translate(74,187)"/>
<path d="M0 0 C0 0.66 0 1.32 0 2 C-0.99 2 -1.98 2 -3 2 C-3 2.99 -3 3.98 -3 5 C-5.99531539 5.99843846 -7.17255732 6.00732761 -10.1875 5.5625 C-11.445625 5.376875 -12.70375 5.19125 -14 5 C-14 4.01 -14 3.02 -14 2 C-12.4176994 1.66179834 -10.83410625 1.32964061 -9.25 1 C-8.36828125 0.814375 -7.4865625 0.62875 -6.578125 0.4375 C-4 0 -4 0 0 0 Z " fill="#D32D57" transform="translate(239,117)"/>
<path d="M0 0 C2 3 2 3 2 6 C2.99 6.33 3.98 6.66 5 7 C4.67 9.31 4.34 11.62 4 14 C2.68 12.68 1.36 11.36 0 10 C-0.99 10.66 -1.98 11.32 -3 12 C-2.49202991 7.6822542 -1.80317221 3.96697886 0 0 Z " fill="#5BB6EF" transform="translate(91,82)"/>
<path d="M0 0 C0 0.66 0 1.32 0 2 C-0.99 2 -1.98 2 -3 2 C-3.0825 2.598125 -3.165 3.19625 -3.25 3.8125 C-4.21576779 6.62932273 -5.48868567 7.47799132 -8 9 C-8.66 9 -9.32 9 -10 9 C-9.814375 8.38125 -9.62875 7.7625 -9.4375 7.125 C-8.76313824 4.95839822 -8.76313824 4.95839822 -10 3 C-6.68152292 -0.06320961 -4.44849969 -0.3033068 0 0 Z " fill="#A31F66" transform="translate(283,119)"/>
<path d="M0 0 C0.33 0.99 0.66 1.98 1 3 C-0.66666667 4.66666667 -2.33333333 6.33333333 -4 8 C-4.61875 8.721875 -5.2375 9.44375 -5.875 10.1875 C-8.68574347 12.58489884 -11.44087527 13.17866352 -15 14 C-10.2347969 9.0759568 -5.11342667 4.55740358 0 0 Z " fill="#E1F9FD" transform="translate(229,201)"/>
<path d="M0 0 C-5.12181749 4.17832479 -9.47603393 4.74213573 -16 5 C-16.33 4.34 -16.66 3.68 -17 3 C-14.92085336 2.29994051 -12.83648414 1.61537756 -10.75 0.9375 C-9.58984375 0.55464844 -8.4296875 0.17179687 -7.234375 -0.22265625 C-4.19922915 -0.95211763 -2.84296787 -1.11889082 0 0 Z " fill="#BE416A" transform="translate(273,124)"/>
<path d="M0 0 C0.98120464 3.05263664 0.98120464 4.94736336 0 8 C-6.0546875 8.9765625 -6.0546875 8.9765625 -8 9 C-8.66 8.34 -9.32 7.68 -10 7 C-9.16855469 6.61908203 -9.16855469 6.61908203 -8.3203125 6.23046875 C-7.59585938 5.88628906 -6.87140625 5.54210937 -6.125 5.1875 C-5.40570313 4.85105469 -4.68640625 4.51460938 -3.9453125 4.16796875 C-1.69457194 3.00532903 -1.69457194 3.00532903 0 0 Z " fill="#5EB8F0" transform="translate(112,93)"/>
<path d="M0 0 C0 0.66 0 1.32 0 2 C-4.52000601 5.70872288 -9.1602649 7.45849729 -15 8 C-16.33985385 7.69392723 -17.67471344 7.36401158 -19 7 C-16.2100561 5.82905995 -13.41821403 4.66309073 -10.625 3.5 C-9.43390625 2.99919922 -9.43390625 2.99919922 -8.21875 2.48828125 C-7.45820313 2.17246094 -6.69765625 1.85664063 -5.9140625 1.53125 C-5.2123291 1.23798828 -4.5105957 0.94472656 -3.78759766 0.64257812 C-2 0 -2 0 0 0 Z " fill="#E2F9FD" transform="translate(203,222)"/>
<path d="M0 0 C2.7708983 -0.02696009 5.5415345 -0.04681952 8.3125 -0.0625 C9.09818359 -0.07087891 9.88386719 -0.07925781 10.69335938 -0.08789062 C11.45068359 -0.09111328 12.20800781 -0.09433594 12.98828125 -0.09765625 C13.68477783 -0.10289307 14.38127441 -0.10812988 15.09887695 -0.11352539 C17 0 17 0 20 1 C20.33 3.31 20.66 5.62 21 8 C20.360625 7.154375 19.72125 6.30875 19.0625 5.4375 C16.37982717 2.78431206 16.37982717 2.78431206 13.91015625 2.99609375 C12.36893815 3.25164615 10.82982424 3.52018284 9.29296875 3.80078125 C5.58053243 4.12332682 3.23831521 2.72250809 0 1 C0 0.67 0 0.34 0 0 Z " fill="#DEF9FE" transform="translate(112,115)"/>
<path d="M0 0 C1.3357457 3.77371512 0.72408671 6.85831347 0.0625 10.75 C-0.13214844 11.92046875 -0.32679687 13.0909375 -0.52734375 14.296875 C-0.76130859 15.63492188 -0.76130859 15.63492188 -1 17 C-1.66 17 -2.32 17 -3 17 C-3 18.32 -3 19.64 -3 21 C-3.66 21 -4.32 21 -5 21 C-4.42351925 13.64987044 -2.28953836 6.98575424 0 0 Z " fill="#5299C6" transform="translate(49,89)"/>
<path d="M0 0 C3.3 0 6.6 0 10 0 C10 0.66 10 1.32 10 2 C12.97 2.33 15.94 2.66 19 3 C19.66 4.65 20.32 6.3 21 8 C15.43866171 6.23048327 15.43866171 6.23048327 13.15625 5.03125 C10.57565166 3.79705079 8.01564622 3.09933592 5.25 2.375 C3.77273437 1.98441406 3.77273437 1.98441406 2.265625 1.5859375 C1.51796875 1.39257812 0.7703125 1.19921875 0 1 C0 0.67 0 0.34 0 0 Z " fill="#DAF4FA" transform="translate(171,21)"/>
<path d="M0 0 C0.33 0 0.66 0 1 0 C1.268125 1.093125 1.53625 2.18625 1.8125 3.3125 C2.66536779 6.92204591 2.66536779 6.92204591 4.6875 8.6875 C5.120625 9.120625 5.55375 9.55375 6 10 C5.71483972 13.0417096 4.73969465 14.39045802 3 17 C1.0546875 17.29296875 1.0546875 17.29296875 -1.125 17.1875 C-2.40375 17.125625 -3.6825 17.06375 -5 17 C-5 16.67 -5 16.34 -5 16 C-3.02 16 -1.04 16 1 16 C1.68493373 13.14221967 1.68493373 13.14221967 2 10 C1.34 9.01 0.68 8.02 0 7 C-0.07905064 4.66800612 -0.08798769 2.33167378 0 0 Z " fill="#6AA7CE" transform="translate(163,38)"/>
<path d="M0 0 C1.65 0 3.3 0 5 0 C1.69984002 4.13937592 -1.17324411 7.58662205 -6 10 C-5.34 8.68 -4.68 7.36 -4 6 C-3.34 6 -2.68 6 -2 6 C-2.83333333 3.83333333 -2.83333333 3.83333333 -5 3 C-3.35 2.67 -1.7 2.34 0 2 C0 1.34 0 0.68 0 0 Z " fill="#BE4061" transform="translate(232,122)"/>
<path d="M0 0 C1.65 0 3.3 0 5 0 C5 0.66 5 1.32 5 2 C5.66 2.33 6.32 2.66 7 3 C6.01 4.485 6.01 4.485 5 6 C4.01 6 3.02 6 2 6 C1.67 6.66 1.34 7.32 1 8 C0.40267181 5.23735711 0 2.83967231 0 0 Z " fill="#4EB1F5" transform="translate(112,80)"/>
<path d="M0 0 C-0.78246094 0.47050781 -1.56492187 0.94101562 -2.37109375 1.42578125 C-3.38300781 2.04839844 -4.39492187 2.67101563 -5.4375 3.3125 C-6.44683594 3.92738281 -7.45617187 4.54226562 -8.49609375 5.17578125 C-11.26270603 6.82051965 -11.26270603 6.82051965 -12 10 C-12.99 10.33 -13.98 10.66 -15 11 C-14.48794036 7.4155825 -13.60957048 5.47857093 -10.74609375 3.23046875 C-3.61166159 -1.2038872 -3.61166159 -1.2038872 0 0 Z M-17 11 C-15 12 -15 12 -15 12 Z " fill="#259AE8" transform="translate(100,36)"/>
<path d="M0 0 C-12.48519362 3.44419134 -12.48519362 3.44419134 -19 3 C-15.96467594 -0.03532406 -13.81173162 -0.23214315 -9.625 -0.625 C-8.66851562 -0.72039062 -7.71203125 -0.81578125 -6.7265625 -0.9140625 C-4.21530604 -0.99321385 -2.37698275 -0.75477651 0 0 Z " fill="#E1F8FC" transform="translate(207,208)"/>
<path d="M0 0 C1.32 0 2.64 0 4 0 C4.8971875 1.60875 4.8971875 1.60875 5.8125 3.25 C7.37401069 5.98958993 9.02605503 8.53256878 11 11 C8.12362154 10.64363453 7.10554032 10.11154668 5.078125 7.96875 C4.17320313 6.74671875 4.17320313 6.74671875 3.25 5.5 C2.63640625 4.6853125 2.0228125 3.870625 1.390625 3.03125 C0 1 0 1 0 0 Z " fill="#578EBC" transform="translate(60,185)"/>
<path d="M0 0 C-1.31914629 2.63829259 -2.23857335 2.98263229 -5 4 C-7.33203812 4.0777346 -9.66839059 4.08967728 -12 4 C-12.33 3.34 -12.66 2.68 -13 2 C-11.39935157 1.46845258 -9.79431126 0.95011647 -8.1875 0.4375 C-7.29417969 0.14746094 -6.40085938 -0.14257812 -5.48046875 -0.44140625 C-3 -1 -3 -1 0 0 Z " fill="#C24065" transform="translate(256,129)"/>
<path d="M0 0 C0.99 0 1.98 0 3 0 C3.6708712 1.6232687 4.33657029 3.24867578 5 4.875 C5.556875 6.23238281 5.556875 6.23238281 6.125 7.6171875 C7 10 7 10 7 12 C4 11 4 11 2.83203125 9.00390625 C2.49558594 8.19824219 2.15914062 7.39257812 1.8125 6.5625 C1.46832031 5.75941406 1.12414063 4.95632812 0.76953125 4.12890625 C0 2 0 2 0 0 Z " fill="#4F8CBB" transform="translate(49,162)"/>
<path d="M0 0 C4.9723422 1.49170266 9.41845739 3.60457417 14 6 C13.01 6.99 12.02 7.98 11 9 C9.16384919 7.69144447 7.33114211 6.37805538 5.5 5.0625 C4.4790625 4.33160156 3.458125 3.60070312 2.40625 2.84765625 C1.6121875 2.23792969 0.818125 1.62820312 0 1 C0 0.67 0 0.34 0 0 Z " fill="#A45A73" transform="translate(9,156)"/>
<path d="M0 0 C0 4.03223106 -1.64129026 5.80880447 -4 9 C-4.99 9.495 -4.99 9.495 -6 10 C-6 9.01 -6 8.02 -6 7 C-7.65 7.66 -9.3 8.32 -11 9 C-7.67149253 5.40521193 -4.01028669 2.77635232 0 0 Z " fill="#5F95B6" transform="translate(233,193)"/>
<path d="M0 0 C0.33 0.99 0.66 1.98 1 3 C1.99 3.33 2.98 3.66 4 4 C6.37999159 7.93613994 7.45820789 11.44894625 8 16 C7.01 16 6.02 16 5 16 C4.938125 14.989375 4.87625 13.97875 4.8125 12.9375 C4.19138117 8.32616326 1.85476316 5.58675372 -1 2 C-0.67 1.34 -0.34 0.68 0 0 Z " fill="#DFFAFE" transform="translate(133,71)"/>
<path d="M0 0 C0.99 0.33 1.98 0.66 3 1 C1.68 3.31 0.36 5.62 -1 8 C-4.63 7.67 -8.26 7.34 -12 7 C-12 6.67 -12 6.34 -12 6 C-8.37 6 -4.74 6 -1 6 C-1 4.35 -1 2.7 -1 1 C-0.67 0.67 -0.34 0.34 0 0 Z " fill="#66A6CF" transform="translate(153,55)"/>
<path d="M0 0 C3.37462715 0.54723683 5.08235 1.0549 8 3 C7.67 4.32 7.34 5.64 7 7 C4.36 5.35 1.72 3.7 -1 2 C-0.67 1.34 -0.34 0.68 0 0 Z " fill="#AE4266" transform="translate(22,163)"/>
<path d="M0 0 C0.99 0.33 1.98 0.66 3 1 C1.3125 3.0625 1.3125 3.0625 -1 5 C-3.75 4.75 -3.75 4.75 -6 4 C-6.66 4.99 -7.32 5.98 -8 7 C-8.33 6.34 -8.66 5.68 -9 5 C-8.34 4.01 -7.68 3.02 -7 2 C-3.375 1.3125 -3.375 1.3125 0 1 C0 0.67 0 0.34 0 0 Z " fill="#388FC8" transform="translate(221,203)"/>
<path d="M0 0 C1.58467728 0.28427417 3.1677057 0.57774818 4.75 0.875 C6.07257813 1.11863281 6.07257813 1.11863281 7.421875 1.3671875 C10 2 10 2 14 4 C10.04 4 6.08 4 2 4 C1.34 2.68 0.68 1.36 0 0 Z " fill="#81A1DF" transform="translate(64,186)"/>
<path d="M0 0 C0.99 0.33 1.98 0.66 3 1 C3 3.64 3 6.28 3 9 C2.01 9.495 2.01 9.495 1 10 C0.01 7.03 -0.98 4.06 -2 1 C-1.34 0.67 -0.68 0.34 0 0 Z " fill="#4CB2F7" transform="translate(53,160)"/>
<path d="M0 0 C1.55078125 1.11328125 1.55078125 1.11328125 3 3 C2.85546875 5.91796875 2.85546875 5.91796875 2.1875 9.1875 C1.86845703 10.81751953 1.86845703 10.81751953 1.54296875 12.48046875 C1.36378906 13.31191406 1.18460938 14.14335938 1 15 C-1.14699969 11.55824478 -1.09856795 9.2279708 -0.625 5.25 C-0.51414063 4.26515625 -0.40328125 3.2803125 -0.2890625 2.265625 C-0.19367188 1.51796875 -0.09828125 0.7703125 0 0 Z " fill="#E3FBFE" transform="translate(183,80)"/>
<path d="M0 0 C0.33 0.66 0.66 1.32 1 2 C0.0625 4.125 0.0625 4.125 -1 6 C-2.45792884 6.05399736 -3.91642712 6.09279177 -5.375 6.125 C-6.18710938 6.14820313 -6.99921875 6.17140625 -7.8359375 6.1953125 C-10 6 -10 6 -12 4 C-10.95199219 3.94392578 -10.95199219 3.94392578 -9.8828125 3.88671875 C-8.97273437 3.82097656 -8.06265625 3.75523438 -7.125 3.6875 C-6.22007812 3.62949219 -5.31515625 3.57148437 -4.3828125 3.51171875 C-1.63778399 3.2117961 -1.63778399 3.2117961 0 0 Z " fill="#C8EBF9" transform="translate(168,51)"/>
<path d="M0 0 C-3.625 4.875 -3.625 4.875 -7 6 C-7.33 4.35 -7.66 2.7 -8 1 C-5.29120665 -0.35439668 -2.99066732 -0.06501451 0 0 Z " fill="#A12864" transform="translate(264,138)"/>
<path d="M0 0 C2 2 2 2 3 5 C1.02 6.32 -0.96 7.64 -3 9 C-2.25 2.25 -2.25 2.25 0 0 Z " fill="#D52C58" transform="translate(227,123)"/>
<path d="M0 0 C0.66 0.33 1.32 0.66 2 1 C-0.97 3.64 -3.94 6.28 -7 9 C-7.33 8.34 -7.66 7.68 -8 7 C-7.0625 4.875 -7.0625 4.875 -6 3 C-5.01 3 -4.02 3 -3 3 C-3 2.34 -3 1.68 -3 1 C-2.01 0.67 -1.02 0.34 0 0 Z " fill="#E0F9FD" transform="translate(81,42)"/>
<path d="M0 0 C10.55808656 0.96355353 10.55808656 0.96355353 15 2 C15 2.33 15 2.66 15 3 C13.2507786 3.08142927 11.50045458 3.13938541 9.75 3.1875 C8.28820312 3.23970703 8.28820312 3.23970703 6.796875 3.29296875 C3.62531258 2.96075202 2.32959693 2.11327721 0 0 Z " fill="#84A1E0" transform="translate(78,190)"/>
<path d="M0 0 C-3.27301919 2.96909598 -5.38065762 3.34354794 -9.75 3.1875 C-11.22726563 3.14689453 -11.22726563 3.14689453 -12.734375 3.10546875 C-13.85585937 3.05326172 -13.85585937 3.05326172 -15 3 C-14.67 2.34 -14.34 1.68 -14 1 C-11.6015625 0.33203125 -11.6015625 0.33203125 -8.625 -0.1875 C-7.64789063 -0.36667969 -6.67078125 -0.54585937 -5.6640625 -0.73046875 C-3 -1 -3 -1 0 0 Z " fill="#BA1D64" transform="translate(184,175)"/>
<path d="M0 0 C0.66 0.33 1.32 0.66 2 1 C0.76265016 2.03613033 -0.49044637 3.05347802 -1.75 4.0625 C-2.79414063 4.91521484 -2.79414063 4.91521484 -3.859375 5.78515625 C-6 7 -6 7 -8.265625 6.68359375 C-8.83796875 6.45800781 -9.4103125 6.23242188 -10 6 C-8.3811004 4.96951963 -6.75467511 3.95085322 -5.125 2.9375 C-4.22007812 2.36902344 -3.31515625 1.80054688 -2.3828125 1.21484375 C-1.20332031 0.61349609 -1.20332031 0.61349609 0 0 Z " fill="#B4195E" transform="translate(240,142)"/>
<path d="M0 0 C1.65 0 3.3 0 5 0 C2.42215154 2.64752004 0.08351902 4.94432065 -3 7 C-3.33 5.68 -3.66 4.36 -4 3 C-3.01 3.33 -2.02 3.66 -1 4 C-0.67 2.68 -0.34 1.36 0 0 Z " fill="#A53269" transform="translate(252,144)"/>
<path d="M0 0 C2.97 0 5.94 0 9 0 C9.33 0.66 9.66 1.32 10 2 C6.12315913 3.19287411 3.08378077 4 -1 4 C-0.67 2.68 -0.34 1.36 0 0 Z " fill="#3990CF" transform="translate(146,25)"/>
<path d="M0 0 C0.66 0.33 1.32 0.66 2 1 C1 2.9375 1 2.9375 -1 5 C-3.69924572 5.66549451 -6.20631637 5.81680763 -9 6 C-6.12050853 3.76039553 -3.23257974 1.70135776 0 0 Z " fill="#F8D7EC" transform="translate(225,167)"/>
<path d="M0 0 C0.33 0.66 0.66 1.32 1 2 C-0.13719419 5.41158256 -1.04342944 6.11854601 -4 8 C-4.66 8 -5.32 8 -6 8 C-5.65120368 4.74456771 -4.97866739 3.98126893 -2.4375 1.75 C-1.633125 1.1725 -0.82875 0.595 0 0 Z " fill="#BF3D67" transform="translate(195,147)"/>
<path d="M0 0 C0 3.99191204 -1.25498212 5.18079244 -4 8 C-6.75 8.8125 -6.75 8.8125 -9 9 C-6 6 -3 3 0 0 Z " fill="#FADDF1" transform="translate(274,130)"/>
<path d="M0 0 C2.64 0.33 5.28 0.66 8 1 C8 2.32 8 3.64 8 5 C4.75791433 4.64950425 3.38472296 4.43778819 1.1875 1.9375 C0.795625 1.298125 0.40375 0.65875 0 0 Z " fill="#B63360" transform="translate(27,166)"/>
<path d="M0 0 C2 1 2 1 2.8515625 3.28515625 C3.10679688 4.20167969 3.36203125 5.11820313 3.625 6.0625 C3.88539062 6.98160156 4.14578125 7.90070313 4.4140625 8.84765625 C4.60742188 9.55792969 4.80078125 10.26820313 5 11 C4.01 11.495 4.01 11.495 3 12 C2.30062798 10.5682384 1.61587282 9.12932968 0.9375 7.6875 C0.55464844 6.88699219 0.17179687 6.08648437 -0.22265625 5.26171875 C-1 3 -1 3 0 0 Z " fill="#DBF7FC" transform="translate(92,151)"/>
<path d="M0 0 C0.33 0 0.66 0 1 0 C1.35050464 5.841744 1.16727335 9.8531808 -2 15 C-2.99 14.67 -3.98 14.34 -5 14 C-4.0409375 12.7625 -4.0409375 12.7625 -3.0625 11.5 C-0.53586919 7.76808594 -0.30639772 4.44276697 0 0 Z " fill="#BE5776" transform="translate(201,132)"/>
<path d="M0 0 C0.66 0 1.32 0 2 0 C1.71905418 1.8141927 1.42493567 3.62635001 1.125 5.4375 C0.88136719 6.95150391 0.88136719 6.95150391 0.6328125 8.49609375 C0.42398438 9.32238281 0.21515625 10.14867188 0 11 C-0.99 11.495 -0.99 11.495 -2 12 C-2.21278058 7.53160785 -1.59138085 4.17737474 0 0 Z " fill="#E2FAFE" transform="translate(45,95)"/>
<path d="M0 0 C0.33 0.99 0.66 1.98 1 3 C-0.43359375 5.04296875 -0.43359375 5.04296875 -2.4375 7.1875 C-3.09621094 7.90292969 -3.75492187 8.61835937 -4.43359375 9.35546875 C-4.95050781 9.89816406 -5.46742187 10.44085938 -6 11 C-6.66 10.67 -7.32 10.34 -8 10 C-5.36 6.7 -2.72 3.4 0 0 Z " fill="#5496C1" transform="translate(73,51)"/>
<path d="M0 0 C0.66 0.33 1.32 0.66 2 1 C-1.96 4.465 -1.96 4.465 -6 8 C-6.66 7.67 -7.32 7.34 -8 7 C-5.42215154 4.35247996 -3.08351902 2.05567935 0 0 Z " fill="#61A2CB" transform="translate(223,205)"/>
<path d="M0 0 C3.98069267 2.87494471 6.43571997 5.82117329 9 10 C4.71095765 8.4114658 2.67654474 5.56872632 0 2 C0 1.34 0 0.68 0 0 Z " fill="#DBF7FC" transform="translate(64,192)"/>
<path d="M0 0 C7.50769231 -0.36923077 7.50769231 -0.36923077 10 1.5 C10.495 2.2425 10.495 2.2425 11 3 C10.67 3.99 10.34 4.98 10 6 C9.278125 5.360625 8.55625 4.72125 7.8125 4.0625 C5.01808816 2.01326465 3.38336726 1.38667054 0 1 C0 0.67 0 0.34 0 0 Z " fill="#DEF9FD" transform="translate(191,75)"/>
<path d="M0 0 C0 0.66 0 1.32 0 2 C-3.07617188 2.29296875 -3.07617188 2.29296875 -6.15234375 2.5859375 C-6.76207031 2.72257812 -7.37179688 2.85921875 -8 3 C-8.33 3.66 -8.66 4.32 -9 5 C-9.33 4.01 -9.66 3.02 -10 2 C-9.34 2 -8.68 2 -8 2 C-7.67 1.34 -7.34 0.68 -7 0 C-4.0262656 -1.09036928 -3.11592499 -1.03864166 0 0 Z " fill="#45A6E4" transform="translate(146,58)"/>
<path d="M0 0 C0.33 0.66 0.66 1.32 1 2 C-1.25 4.5625 -1.25 4.5625 -4 7 C-5.32 6.67 -6.64 6.34 -8 6 C-5.36 4.02 -2.72 2.04 0 0 Z " fill="#FDE2F3" transform="translate(247,152)"/>
<path d="M0 0 C0.33 0 0.66 0 1 0 C1 1.98 1 3.96 1 6 C-2.96 6 -6.92 6 -11 6 C-11 5.67 -11 5.34 -11 5 C-10.37351562 4.97421875 -9.74703125 4.9484375 -9.1015625 4.921875 C-8.28429687 4.86515625 -7.46703125 4.8084375 -6.625 4.75 C-5.81289062 4.70359375 -5.00078125 4.6571875 -4.1640625 4.609375 C-1.81161073 4.2077908 -1.81161073 4.2077908 -0.7109375 1.953125 C-0.47632812 1.30859375 -0.24171875 0.6640625 0 0 Z " fill="#D7F5FD" transform="translate(113,98)"/>
<path d="M0 0 C2.97 1.65 5.94 3.3 9 5 C9 5.33 9 5.66 9 6 C6.1875 6.25 6.1875 6.25 3 6 C1.125 4.125 1.125 4.125 0 2 C0 1.34 0 0.68 0 0 Z " fill="#DAF8FD" transform="translate(93,97)"/>
<path d="M0 0 C1.3921875 0.0928125 1.3921875 0.0928125 2.8125 0.1875 C2.8125 0.8475 2.8125 1.5075 2.8125 2.1875 C-1.6425 2.6825 -1.6425 2.6825 -6.1875 3.1875 C-3.1875 0.1875 -3.1875 0.1875 0 0 Z " fill="#55BBFC" transform="translate(108.1875,97.8125)"/>
<path d="M0 0 C-1.62249941 0.83819158 -3.24808497 1.6704116 -4.875 2.5 C-6.23238281 3.19609375 -6.23238281 3.19609375 -7.6171875 3.90625 C-10 5 -10 5 -12 5 C-11 2 -11 2 -9.2578125 1.015625 C-8.55398437 0.76296875 -7.85015625 0.5103125 -7.125 0.25 C-6.07699219 -0.14445312 -6.07699219 -0.14445312 -5.0078125 -0.546875 C-3 -1 -3 -1 0 0 Z " fill="#D2F3FB" transform="translate(111,27)"/>
<path d="M0 0 C0 0.66 0 1.32 0 2 C-2.40545638 3.20272819 -3.94996953 3.10071472 -6.625 3.0625 C-7.85089844 3.04896484 -7.85089844 3.04896484 -9.1015625 3.03515625 C-10.04128906 3.01775391 -10.04128906 3.01775391 -11 3 C-7.20844146 1.05276952 -4.29965574 0 0 0 Z " fill="#BC4E75" transform="translate(125,171)"/>
<path d="M0 0 C0.99 0.33 1.98 0.66 3 1 C3.6875 3.0625 3.6875 3.0625 4 5 C2.35 5 0.7 5 -1 5 C-0.67 3.35 -0.34 1.7 0 0 Z " fill="#398FC9" transform="translate(97,170)"/>
<path d="M0 0 C2.64 0.99 5.28 1.98 8 3 C8 3.66 8 4.32 8 5 C4.7 4.01 1.4 3.02 -2 2 C-1.34 1.34 -0.68 0.68 0 0 Z " fill="#F8D5E6" transform="translate(32,164)"/>
<path d="M0 0 C1.88391785 3.26545761 2.49287967 6.28111761 3 10 C2.01 10 1.02 10 0 10 C-1.2380014 6.42355152 -0.74926071 3.66305234 0 0 Z " fill="#4595CC" transform="translate(48,152)"/>
<path d="M0 0 C0 4.38968456 -2.12805101 5.76905739 -5 9 C-5.66 8.67 -6.32 8.34 -7 8 C-5.50902342 4.2047869 -3.24299151 2.38957269 0 0 Z " fill="#FDDEEB" transform="translate(234,125)"/>
<path d="M0 0 C-1.65 1.32 -3.3 2.64 -5 4 C-5 3.01 -5 2.02 -5 1 C-6.98 1 -8.96 1 -11 1 C-11 0.67 -11 0.34 -11 0 C-3.375 -1.125 -3.375 -1.125 0 0 Z " fill="#B66A81" transform="translate(246,115)"/>
<path d="M0 0 C1 2 1 2 0.25 4.9375 C-0.92931463 7.82682085 -1.78177928 8.95850565 -4 11 C-3.5247412 9.35303396 -3.04468109 7.70745272 -2.5625 6.0625 C-2.29566406 5.14597656 -2.02882812 4.22945313 -1.75390625 3.28515625 C-1 1 -1 1 0 0 Z " fill="#5095BC" transform="translate(54,78)"/>
<path d="M0 0 C0.33 0.99 0.66 1.98 1 3 C-0.40445835 5.2636564 -2.1967913 7.0208685 -4 9 C-4 5.76138705 -3.3749149 3.90259811 -2 1 C-1.34 0.67 -0.68 0.34 0 0 Z " fill="#3099DF" transform="translate(67,61)"/>
<path d="M0 0 C0.33 0 0.66 0 1 0 C1.042721 1.66611905 1.04063832 3.33382885 1 5 C0 6 0 6 -1.84765625 6.09765625 C-3.8984375 6.06510417 -5.94921875 6.03255208 -8 6 C-8 5.67 -8 5.34 -8 5 C-6.02 5 -4.04 5 -2 5 C-1.34 3.35 -0.68 1.7 0 0 Z " fill="#549DC8" transform="translate(166,49)"/>
<path d="M0 0 C0.66 0.33 1.32 0.66 2 1 C1.67 1.66 1.34 2.32 1 3 C-1.06640625 3.6328125 -1.06640625 3.6328125 -3.5625 4.125 C-4.38878906 4.29257813 -5.21507812 4.46015625 -6.06640625 4.6328125 C-6.70449219 4.75398437 -7.34257812 4.87515625 -8 5 C-5.6875 2.9375 -5.6875 2.9375 -3 1 C-2.01 1.33 -1.02 1.66 0 2 C0 1.34 0 0.68 0 0 Z " fill="#6CBDF0" transform="translate(184,225)"/>
<path d="M0 0 C0.66 0.33 1.32 0.66 2 1 C1.6875 2.9375 1.6875 2.9375 1 5 C0.01 5.33 -0.98 5.66 -2 6 C-2 4.35 -2 2.7 -2 1 C-1.34 0.67 -0.68 0.34 0 0 Z " fill="#3191D2" transform="translate(84,91)"/>
</svg>
